<svg width="217" height="82" viewBox="0 0 217 82" fill="none" xmlns="http://www.w3.org/2000/svg">
<rect x="0.5" y="0.5" width="81" height="81" rx="40.5" stroke="white"/>
<rect x="6.5" y="6.5" width="69" height="69" rx="34.5" fill="white" stroke="white"/>
<path d="M59.8977 27.3333L62.4763 27.3479V36.0922C62.4763 37.9408 62.2464 39.7454 61.7868 41.506C61.3272 43.2666 60.6837 44.8903 59.8564 46.377C59.0382 47.8637 58.0408 49.2331 56.8642 50.4851C55.6875 51.737 54.4006 52.8032 53.0033 53.6835C51.606 54.554 50.08 55.2338 48.4254 55.7228C46.7707 56.2119 45.0747 56.4564 43.3373 56.4564H41.6688V36.8698H44.3163V55.6495C46.4398 55.6495 48.4116 55.3267 50.342 54.4464C52.2725 53.5661 53.9317 52.3875 55.3198 50.9105C56.7171 49.4238 57.8294 47.6534 58.6567 45.5994C59.4841 43.5454 59.8977 41.3887 59.8977 39.1292V27.3333Z" fill="#0B1928"/>
<path d="M39.1729 36.9172H45.4607V37.6067H43.5992V54.4644H41.0206V50.6058C39.9175 51.8871 38.6995 52.8652 37.3666 53.5401C36.0337 54.215 34.5077 54.5524 32.7887 54.5524C31.0513 54.5524 29.4104 54.2052 27.866 53.5108C26.3309 52.8163 25.0163 51.8822 23.9224 50.7085C22.8377 49.5348 21.9782 48.141 21.3439 46.5271C20.7188 44.9132 20.4062 43.2162 20.4062 41.436C20.4062 39.9982 20.5809 38.6191 20.9302 37.2986C21.2887 35.9782 21.8311 34.7555 22.5573 33.6307C23.2927 32.4961 24.1798 31.5229 25.2186 30.7111C26.2665 29.8895 27.5213 29.2635 28.9829 28.8331C30.4538 28.4027 32.0533 28.2267 33.7815 28.3049C34.8386 28.3538 35.8498 28.5054 36.815 28.7597C37.7803 29.0141 38.5892 29.3124 39.2419 29.6547C39.9037 29.997 40.5013 30.3687 41.0344 30.7698C41.5676 31.1708 41.9721 31.5278 42.2479 31.8408C42.5236 32.1538 42.7167 32.4228 42.827 32.6477L39.7383 33.5574C39.821 33.0292 39.7521 32.5059 39.5314 31.9875C39.3108 31.4691 38.9615 30.9947 38.4835 30.5644C38.0055 30.1242 37.3574 29.7623 36.5393 29.4787C35.7211 29.195 34.7973 29.0385 33.7677 29.0092C32.3244 28.9603 31.0007 29.1412 29.7965 29.552C28.6014 29.9628 27.5811 30.5497 26.7354 31.3126C25.8988 32.0657 25.191 32.9705 24.6119 34.0269C24.0327 35.0832 23.6099 36.2325 23.3433 37.4747C23.0859 38.7071 22.971 40.008 22.9986 41.3773C23.0353 43.5781 23.472 45.593 24.3085 47.422C25.145 49.2511 26.3079 50.7085 27.7971 51.7942C29.2863 52.8701 30.9502 53.4081 32.7887 53.4081C34.1859 53.4081 35.5924 53.1342 37.0081 52.5865C38.4329 52.0289 39.7704 51.2171 41.0206 50.151V37.6067H39.1729V36.9172Z" fill="#0B1928"/>
<path fill-rule="evenodd" clip-rule="evenodd" d="M38.2904 36.7375H46.0811V38.5455H44.3161V56.4562H40.1381V52.7783C39.3874 53.4226 38.5901 53.9602 37.7457 54.3878C36.2763 55.1317 34.6173 55.4912 32.7886 55.4912C30.9375 55.4912 29.1794 55.1206 27.5224 54.3755L27.5207 54.3747C25.8881 53.6361 24.476 52.6358 23.2957 51.3694L23.2931 51.3666C22.1247 50.1024 21.2045 48.6063 20.5296 46.8891L20.5279 46.8846C19.858 45.155 19.5237 43.3362 19.5237 41.4358C19.5237 39.9161 19.7084 38.4511 20.0807 37.044L20.0823 37.0378C20.4669 35.6214 21.0497 34.3072 21.8298 33.0988L21.8308 33.0974C22.6216 31.8773 23.5773 30.8285 24.6955 29.9545C25.8431 29.0549 27.1992 28.3838 28.7475 27.9279L28.7489 27.9275C30.319 27.4681 32.0112 27.2847 33.8189 27.3666C34.931 27.418 36.0014 27.5778 37.0271 27.8481C38.0321 28.1129 38.9043 28.4309 39.6298 28.8111C40.3286 29.1727 40.9675 29.5693 41.5438 30.0028C42.0997 30.4209 42.558 30.8197 42.8916 31.1983C43.19 31.537 43.4451 31.8782 43.6093 32.2132L44.1141 33.2427L38.6403 34.8548L38.8677 33.4028C38.9198 33.0699 38.8807 32.7346 38.7275 32.3746C38.5693 32.003 38.3084 31.6366 37.9134 31.2809L37.9059 31.2742C37.5427 30.9397 37.01 30.6293 36.2658 30.3712C35.5424 30.1204 34.7048 29.975 33.744 29.9476L33.7395 29.9475C32.3834 29.9015 31.1621 30.0721 30.0667 30.4456C28.9673 30.8237 28.0526 31.3551 27.306 32.0286C26.5498 32.7094 25.9051 33.5311 25.3741 34.4998C24.8423 35.4697 24.4517 36.5286 24.2041 37.6808C23.9637 38.8331 23.8546 40.0576 23.8808 41.357L23.8808 41.3604C23.9155 43.4358 24.3262 45.3147 25.1019 47.0109C25.8753 48.7019 26.9395 50.0301 28.2942 51.0182C29.6335 51.9854 31.1235 52.4689 32.7886 52.4689C34.0748 52.4689 35.3789 52.2172 36.7049 51.7044C37.9114 51.2321 39.0555 50.563 40.1381 49.6919V38.5455H38.2904V36.7375ZM41.0206 50.1507C40.9372 50.2218 40.8534 50.2918 40.7693 50.3606C40.6675 50.4439 40.5651 50.5256 40.4621 50.6056C40.3547 50.689 40.2467 50.7706 40.1381 50.8504C39.3573 51.4241 38.5446 51.9048 37.6999 52.2923C37.4716 52.3971 37.241 52.4951 37.008 52.5862C35.5923 53.134 34.1859 53.4078 32.7886 53.4078C30.9501 53.4078 29.2862 52.8699 27.797 51.794C26.3078 50.7083 25.145 49.2509 24.3084 47.4218C23.4719 45.5928 23.0353 43.5779 22.9985 41.3771C22.9709 40.0078 23.0858 38.7069 23.3432 37.4745C23.6098 36.2323 24.0326 35.083 24.6118 34.0266C25.1909 32.9703 25.8987 32.0655 26.7353 31.3124C27.509 30.6144 28.4288 30.0638 29.4948 29.6606C29.5941 29.623 29.6946 29.5868 29.7964 29.5518C30.9965 29.1424 32.3152 28.9613 33.7526 29.0084C33.7574 29.0086 33.7628 29.0088 33.7676 29.0089C34.7972 29.0383 35.721 29.1948 36.5392 29.4784C36.5729 29.4901 36.6063 29.5019 36.6394 29.5139C37.0479 29.6612 37.4124 29.8288 37.7331 30.0165C38.0178 30.1831 38.2679 30.3657 38.4834 30.5641C38.9614 30.9945 39.3107 31.4689 39.5314 31.9873C39.6164 32.187 39.6788 32.3874 39.7188 32.5886C39.7826 32.9096 39.7891 33.2324 39.7382 33.5571L42.8269 32.6475C42.7169 32.4231 42.5246 32.155 42.25 31.8431L42.2478 31.8406C41.972 31.5276 41.5675 31.1706 41.0343 30.7695C40.5012 30.3685 39.9037 29.9968 39.2418 29.6545C38.8998 29.4751 38.5148 29.3078 38.0869 29.1525C37.6983 29.0116 37.2743 28.8806 36.8149 28.7595C36.7978 28.755 36.7806 28.7505 36.7635 28.7461C35.816 28.5004 34.8244 28.3534 33.7887 28.305L33.7853 28.3049L33.7814 28.3047C32.2672 28.2361 30.8518 28.3628 29.5351 28.6847L29.5333 28.6852C29.4348 28.7093 29.3368 28.7344 29.2395 28.7607C29.1535 28.7839 29.068 28.808 28.9829 28.8329C27.5212 29.2632 26.2664 29.8892 25.2185 30.7108C24.1797 31.5227 23.2926 32.4959 22.5572 33.6305C21.831 34.7553 21.2887 35.978 20.9301 37.2984C20.5808 38.6188 20.4062 39.998 20.4062 41.4358C20.4062 43.216 20.7187 44.913 21.3438 46.5268C21.9781 48.1407 22.8376 49.5345 23.9223 50.7083C25.0163 51.882 26.3308 52.8161 27.866 53.5105C29.4103 54.205 31.0512 54.5522 32.7886 54.5522C34.5076 54.5522 36.0336 54.2148 37.3665 53.5399C37.614 53.4146 37.8576 53.2788 38.0972 53.1325C38.8128 52.6957 39.4931 52.1657 40.1381 51.5423C40.44 51.2505 40.7341 50.9382 41.0206 50.6056V54.4642H43.5991V37.6065H45.4606V36.9169H39.1728V37.6065H41.0206V50.1507Z" fill="#0B1928"/>
<path d="M32.32 38.6157L32.866 41.3212L35.4087 41.9022L32.866 42.4831L32.32 45.1886L31.774 42.4831L29.2313 41.9022L31.774 41.3212L32.32 38.6157Z" fill="#0B1928"/>
<path d="M212.46 68.2326H210.18V57.9307H212.46V68.2326ZM216.243 58.0996H206.397V56.1575H216.243V58.0996Z" fill="white"/>
<path d="M196.301 68.2326H194.072V56.1575H196.47L203.141 66.054H202.263V56.1575H204.492V68.2326H202.094L195.44 58.3361H196.301V68.2326Z" fill="white"/>
<path d="M189.757 65.5811H182.596V63.6559H189.757V65.5811ZM192.223 68.2326H189.774L185.822 57.7619H186.497L182.546 68.2326H180.181L184.944 56.1575H187.46L192.223 68.2326Z" fill="white"/>
<path d="M171.374 68.2326H169.094V56.1575H173.992C174.859 56.1575 175.613 56.3151 176.255 56.6303C176.908 56.9343 177.415 57.3622 177.775 57.9139C178.146 58.4655 178.332 59.1073 178.332 59.8391C178.332 60.5709 178.146 61.2183 177.775 61.7813C177.415 62.333 176.908 62.7664 176.255 63.0817C175.613 63.3857 174.859 63.5377 173.992 63.5377H171.205V61.6124H173.992C174.622 61.6124 175.118 61.4548 175.478 61.1395C175.838 60.8243 176.019 60.3908 176.019 59.8391C176.019 59.2987 175.838 58.8709 175.478 58.5556C175.118 58.2404 174.622 58.0827 173.992 58.0827H171.374V68.2326ZM179.565 68.2326H176.779L172.506 62.6088H175.123L179.565 68.2326Z" fill="white"/>
<path d="M166.642 56.1575V63.4701C166.642 65.0576 166.18 66.2961 165.257 67.1855C164.345 68.0637 163.084 68.5028 161.474 68.5028C159.875 68.5028 158.614 68.0637 157.691 67.1855C156.779 66.2961 156.323 65.0576 156.323 63.4701V56.1575H158.603V63.4701C158.603 64.3933 158.856 65.1308 159.363 65.6825C159.87 66.2229 160.573 66.4931 161.474 66.4931C162.386 66.4931 163.095 66.2229 163.602 65.6825C164.12 65.1308 164.379 64.3933 164.379 63.4701V56.1575H166.642Z" fill="white"/>
<path d="M152.967 65.5811H145.806V63.6559H152.967V65.5811ZM155.433 68.2326H152.984L149.032 57.7619H149.708L145.756 68.2326H143.391L148.154 56.1575H150.67L155.433 68.2326Z" fill="white"/>
<path d="M140.414 68.2326H138.134V57.9307H140.414V68.2326ZM144.197 58.0996H134.351V56.1575H144.197V58.0996Z" fill="white"/>
<path d="M122.356 66.2566L123.893 64.7198C124.186 65.0913 124.541 65.4122 124.957 65.6824C125.374 65.9526 125.824 66.1609 126.308 66.3073C126.792 66.4537 127.288 66.5268 127.794 66.5268C128.346 66.5268 128.819 66.4593 129.213 66.3242C129.618 66.1891 129.928 65.9977 130.142 65.75C130.367 65.491 130.48 65.1927 130.48 64.8549C130.48 64.4045 130.26 64.0443 129.821 63.774C129.393 63.4926 128.622 63.2674 127.507 63.0985C126.415 62.9409 125.526 62.7101 124.839 62.4061C124.163 62.1021 123.662 61.7193 123.336 61.2577C123.021 60.7961 122.863 60.25 122.863 59.6195C122.863 58.8877 123.066 58.2403 123.471 57.6774C123.888 57.1144 124.456 56.6753 125.177 56.3601C125.897 56.0448 126.719 55.8872 127.642 55.8872C128.723 55.8872 129.686 56.0899 130.53 56.4952C131.375 56.9005 132.09 57.4466 132.675 58.1333L131.155 59.6533C130.727 59.1016 130.215 58.6625 129.618 58.336C129.033 58.0095 128.38 57.8462 127.659 57.8462C126.927 57.8462 126.331 57.9982 125.869 58.3022C125.407 58.595 125.177 58.989 125.177 59.4844C125.177 59.7434 125.267 59.9685 125.447 60.1599C125.627 60.3513 125.925 60.5146 126.342 60.6497C126.77 60.7736 127.344 60.8918 128.065 61.0044C129.157 61.1732 130.046 61.4209 130.733 61.7474C131.431 62.0627 131.949 62.468 132.287 62.9634C132.624 63.4588 132.793 64.0499 132.793 64.7367C132.793 65.5023 132.579 66.1666 132.152 66.7295C131.724 67.2924 131.133 67.7315 130.378 68.0468C129.624 68.3508 128.751 68.5028 127.761 68.5028C126.601 68.5028 125.565 68.3001 124.653 67.8948C123.741 67.4782 122.976 66.9322 122.356 66.2566Z" fill="white"/>
<path d="M120.901 68.2326H112.407V56.1575H120.901V58.0827H114.687V66.3073H120.901V68.2326ZM120.581 63.0817H114.518V61.1564H120.581V63.0817Z" fill="white"/>
<path d="M102.561 68.2326H100.281V56.1575H105.178C106.045 56.1575 106.8 56.3151 107.442 56.6303C108.095 56.9343 108.601 57.3622 108.961 57.9139C109.333 58.4655 109.519 59.1073 109.519 59.8391C109.519 60.5709 109.333 61.2183 108.961 61.7813C108.601 62.333 108.095 62.7664 107.442 63.0817C106.8 63.3857 106.045 63.5377 105.178 63.5377H102.392V61.6124H105.178C105.809 61.6124 106.304 61.4548 106.665 61.1395C107.025 60.8243 107.205 60.3908 107.205 59.8391C107.205 59.2987 107.025 58.8709 106.665 58.5556C106.304 58.2404 105.809 58.0827 105.178 58.0827H102.561V68.2326ZM110.752 68.2326H107.965L103.692 62.6088H106.31L110.752 68.2326Z" fill="white"/>
<path d="M152.943 47.122H150.714V35.0469H153.112L159.783 44.9434H158.904V35.0469H161.134V47.122H158.736L152.082 37.2255H152.943V47.122Z" fill="white"/>
<path d="M146.399 44.4705H139.238V42.5453H146.399V44.4705ZM148.865 47.122H146.416L142.464 36.6513H143.139L139.188 47.122H136.823L141.586 35.0469H144.102L148.865 47.122Z" fill="white"/>
<path d="M135.26 47.1227H133.149V45.4676L133.352 45.5521C132.969 46.1375 132.445 46.5935 131.781 46.92C131.117 47.2353 130.368 47.3929 129.535 47.3929C128.657 47.3929 127.84 47.2409 127.086 46.9369C126.332 46.6329 125.673 46.1995 125.11 45.6365C124.547 45.0736 124.108 44.4037 123.793 43.6268C123.489 42.8499 123.337 41.9999 123.337 41.0767C123.337 40.1647 123.494 39.3259 123.81 38.5603C124.136 37.7947 124.587 37.1304 125.161 36.5675C125.746 36.0046 126.433 35.5655 127.221 35.2502C128.009 34.935 128.871 34.7773 129.805 34.7773C130.863 34.7773 131.832 34.9856 132.71 35.4022C133.588 35.8188 134.297 36.3648 134.838 37.0404L133.335 38.5603C132.941 38.0199 132.44 37.5921 131.832 37.2768C131.235 36.9503 130.559 36.7871 129.805 36.7871C129.017 36.7871 128.313 36.9728 127.694 37.3444C127.086 37.7159 126.607 38.2226 126.258 38.8643C125.909 39.5061 125.735 40.2435 125.735 41.0767C125.735 41.9211 125.909 42.6698 126.258 43.3228C126.607 43.9758 127.092 44.4881 127.711 44.8597C128.33 45.2312 129.039 45.417 129.839 45.417C130.627 45.417 131.331 45.2481 131.95 44.9103C132.569 44.5726 133.019 44.0884 133.301 43.4579L133.132 44.1166V42.3602H129.653V40.5194H135.26V47.1227Z" fill="white"/>
<path d="M121.759 47.122H113.264V35.0469H121.759V36.9721H115.544V45.1967H121.759V47.122ZM121.438 41.9711H115.375V40.0458H121.438V41.9711Z" fill="white"/>
<path d="M106.648 47.122H104.334L99.5714 35.0469H102.054L105.837 45.3487H105.212L108.995 35.0469H111.393L106.648 47.122Z" fill="white"/>
<path d="M185.367 26.0121H183.087V15.7103H185.367V26.0121ZM189.15 15.8792H179.304V13.937H189.15V15.8792Z" fill="white"/>
<path d="M177.833 26.0121H169.338V13.937H177.833V15.8623H171.618V24.0869H177.833V26.0121ZM177.512 20.8612H171.449V18.9359H177.512V20.8612Z" fill="white"/>
<path d="M161.08 24.7117H159.391L154.679 14.8659L155.861 14.849V26.0121H153.666V13.937H156.3L160.708 23.1918H159.779L164.187 13.937H166.788V26.0121H164.559V14.849L165.791 14.8659L161.08 24.7117Z" fill="white"/>
<path d="M143.837 26.0121H141.557V13.937H146.454C147.321 13.937 148.076 14.0946 148.718 14.4099C149.371 14.7139 149.877 15.1417 150.237 15.6934C150.609 16.2451 150.795 16.8868 150.795 17.6187C150.795 18.3505 150.609 18.9979 150.237 19.5608C149.877 20.1125 149.371 20.546 148.718 20.8612C148.076 21.1652 147.321 21.3172 146.454 21.3172H143.668V19.3919H146.454C147.085 19.3919 147.58 19.2343 147.941 18.9191C148.301 18.6038 148.481 18.1703 148.481 17.6187C148.481 17.0782 148.301 16.6504 147.941 16.3352C147.58 16.0199 147.085 15.8623 146.454 15.8623H143.837V26.0121ZM152.028 26.0121H149.241L144.968 20.3883H147.586L152.028 26.0121Z" fill="white"/>
<path d="M139.104 13.937V21.2496C139.104 22.8371 138.642 24.0756 137.719 24.9651C136.807 25.8433 135.546 26.2824 133.936 26.2824C132.337 26.2824 131.076 25.8433 130.153 24.9651C129.241 24.0756 128.785 22.8371 128.785 21.2496V13.937H131.065V21.2496C131.065 22.1729 131.319 22.9103 131.825 23.462C132.332 24.0024 133.036 24.2727 133.936 24.2727C134.848 24.2727 135.557 24.0024 136.064 23.462C136.582 22.9103 136.841 22.1729 136.841 21.2496V13.937H139.104Z" fill="white"/>
<path d="M120.218 26.2823C119.284 26.2823 118.423 26.1247 117.635 25.8094C116.858 25.4942 116.176 25.0551 115.591 24.4922C115.006 23.9292 114.555 23.2649 114.24 22.4993C113.925 21.7225 113.767 20.8781 113.767 19.9661C113.767 19.0541 113.925 18.2153 114.24 17.4497C114.555 16.6841 115.006 16.0199 115.591 15.4569C116.176 14.894 116.858 14.4549 117.635 14.1396C118.423 13.8244 119.284 13.6667 120.218 13.6667C121.153 13.6667 122.009 13.8244 122.785 14.1396C123.574 14.4549 124.26 14.894 124.846 15.4569C125.431 16.0199 125.882 16.6841 126.197 17.4497C126.512 18.2153 126.67 19.0541 126.67 19.9661C126.67 20.8781 126.512 21.7225 126.197 22.4993C125.882 23.2649 125.431 23.9292 124.846 24.4922C124.26 25.0551 123.574 25.4942 122.785 25.8094C122.009 26.1247 121.153 26.2823 120.218 26.2823ZM120.218 24.2726C121.018 24.2726 121.721 24.0868 122.329 23.7153C122.937 23.3437 123.41 22.8371 123.748 22.1953C124.097 21.5423 124.272 20.7992 124.272 19.9661C124.272 19.1329 124.097 18.3955 123.748 17.7537C123.41 17.112 122.937 16.6053 122.329 16.2338C121.721 15.8622 121.018 15.6765 120.218 15.6765C119.43 15.6765 118.727 15.8622 118.107 16.2338C117.499 16.6053 117.021 17.112 116.672 17.7537C116.334 18.3955 116.165 19.1329 116.165 19.9661C116.165 20.7992 116.334 21.5423 116.672 22.1953C117.021 22.8371 117.499 23.3437 118.107 23.7153C118.727 24.0868 119.43 24.2726 120.218 24.2726Z" fill="white"/>
<path d="M111.849 26.0121H109.738V24.357L109.941 24.4415C109.558 25.0269 109.034 25.4829 108.37 25.8094C107.706 26.1247 106.957 26.2823 106.124 26.2823C105.246 26.2823 104.43 26.1303 103.675 25.8263C102.921 25.5223 102.262 25.0889 101.699 24.5259C101.136 23.963 100.697 23.2931 100.382 22.5162C100.078 21.7394 99.926 20.8893 99.926 19.9661C99.926 19.0541 100.084 18.2153 100.399 17.4497C100.725 16.6841 101.176 16.0199 101.75 15.4569C102.335 14.894 103.022 14.4549 103.81 14.1396C104.598 13.8244 105.46 13.6667 106.394 13.6667C107.453 13.6667 108.421 13.875 109.299 14.2916C110.177 14.7082 110.887 15.2542 111.427 15.9298L109.924 17.4497C109.53 16.9093 109.029 16.4815 108.421 16.1662C107.824 15.8397 107.149 15.6765 106.394 15.6765C105.606 15.6765 104.902 15.8622 104.283 16.2338C103.675 16.6053 103.197 17.112 102.848 17.7537C102.499 18.3955 102.324 19.1329 102.324 19.9661C102.324 20.8105 102.499 21.5592 102.848 22.2122C103.197 22.8652 103.681 23.3775 104.3 23.7491C104.919 24.1206 105.629 24.3064 106.428 24.3064C107.216 24.3064 107.92 24.1375 108.539 23.7997C109.158 23.462 109.609 22.9778 109.89 22.3473L109.721 23.006V21.2496H106.242V19.4088H111.849V26.0121Z" fill="white"/>
</svg>
