<svg width="42" height="42" viewBox="0 0 42 42" fill="none" xmlns="http://www.w3.org/2000/svg">
<rect x="0.5" y="0.5" width="41" height="41" rx="20.5" stroke="#0B1928"/>
<rect x="3.5" y="3.5" width="35" height="35" rx="17.5" fill="#0B1928" stroke="#0B1928"/>
<path d="M30.6794 14L32.0001 14.0075V18.4863C32.0001 19.4332 31.8824 20.3575 31.647 21.2592C31.4116 22.161 31.082 22.9926 30.6582 23.7541C30.2392 24.5156 29.7283 25.217 29.1256 25.8582C28.523 26.4995 27.8638 27.0456 27.1481 27.4965C26.4324 27.9423 25.6508 28.2905 24.8033 28.541C23.9558 28.7915 23.0871 28.9167 22.1972 28.9167H21.3427V18.8846H22.6987V28.5034C23.7863 28.5034 24.7963 28.3381 25.785 27.8872C26.7738 27.4363 27.6237 26.8327 28.3346 26.0762C29.0503 25.3147 29.62 24.4079 30.0438 23.3558C30.4675 22.3038 30.6794 21.1991 30.6794 20.0418V14Z" fill="white"/>
<path d="M20.0642 18.9089H23.2848V19.2621H22.3313V27.8965H21.0106V25.9202C20.4456 26.5765 19.8217 27.0774 19.139 27.4231C18.4563 27.7688 17.6747 27.9416 16.7942 27.9416C15.9044 27.9416 15.0639 27.7638 14.2729 27.4081C13.4866 27.0524 12.8133 26.5739 12.253 25.9728C11.6974 25.3716 11.2572 24.6577 10.9323 23.8311C10.6121 23.0045 10.452 22.1352 10.452 21.2235C10.452 20.487 10.5415 19.7806 10.7204 19.1043C10.904 18.428 11.1818 17.8018 11.5538 17.2256C11.9305 16.6445 12.3848 16.146 12.9169 15.7302C13.4536 15.3094 14.0963 14.9887 14.845 14.7683C15.5983 14.5479 16.4176 14.4577 17.3028 14.4978C17.8442 14.5228 18.3621 14.6005 18.8565 14.7307C19.3509 14.861 19.7652 15.0138 20.0995 15.1891C20.4385 15.3645 20.7446 15.5548 21.0177 15.7602C21.2908 15.9657 21.4979 16.1485 21.6392 16.3088C21.7804 16.4691 21.8793 16.6069 21.9358 16.7221L20.3538 17.188C20.3962 16.9175 20.3609 16.6495 20.2479 16.384C20.1349 16.1185 19.9559 15.8755 19.7111 15.655C19.4663 15.4296 19.1343 15.2442 18.7153 15.099C18.2962 14.9537 17.823 14.8735 17.2957 14.8585C16.5565 14.8334 15.8785 14.9261 15.2617 15.1365C14.6496 15.3469 14.1269 15.6475 13.6938 16.0383C13.2653 16.4241 12.9027 16.8875 12.6061 17.4285C12.3095 17.9696 12.0929 18.5582 11.9564 19.1945C11.8245 19.8257 11.7657 20.492 11.7798 21.1934C11.7986 22.3206 12.0223 23.3526 12.4507 24.2895C12.8792 25.2263 13.4748 25.9728 14.2376 26.5289C15.0003 27.0799 15.8526 27.3555 16.7942 27.3555C17.5099 27.3555 18.2303 27.2152 18.9554 26.9347C19.6852 26.6491 20.3703 26.2333 21.0106 25.6872V19.2621H20.0642V18.9089Z" fill="white"/>
<path fill-rule="evenodd" clip-rule="evenodd" d="M19.6122 18.8168H23.6026V19.7428H22.6986V28.9166H20.5586V27.0328C20.1741 27.3628 19.7657 27.6382 19.3332 27.8571C18.5806 28.2382 17.7309 28.4223 16.7942 28.4223C15.8461 28.4223 14.9456 28.2325 14.0969 27.8508L14.096 27.8504C13.2598 27.4722 12.5365 26.9598 11.932 26.3112L11.9307 26.3097C11.3322 25.6622 10.8609 24.8959 10.5153 24.0164L10.5143 24.0141C10.1712 23.1282 10 22.1966 10 21.2232C10 20.4448 10.0946 19.6945 10.2853 18.9737L10.2861 18.9706C10.4831 18.2451 10.7816 17.5719 11.1812 16.953L11.1817 16.9523C11.5867 16.3274 12.0763 15.7902 12.649 15.3425C13.2368 14.8818 13.9313 14.538 14.7244 14.3045L14.7251 14.3043C15.5293 14.069 16.3961 13.9751 17.3219 14.017C17.8915 14.0434 18.4398 14.1252 18.9651 14.2636C19.4799 14.3993 19.9267 14.5621 20.2983 14.7569C20.6562 14.9421 20.9834 15.1453 21.2786 15.3673C21.5633 15.5814 21.798 15.7857 21.9689 15.9796C22.1218 16.1531 22.2524 16.3278 22.3365 16.4994L22.5951 17.0267L19.7914 17.8524L19.9079 17.1087C19.9346 16.9383 19.9146 16.7665 19.8361 16.5821C19.7551 16.3918 19.6214 16.2041 19.4191 16.0219L19.4153 16.0185C19.2292 15.8472 18.9564 15.6881 18.5752 15.556C18.2047 15.4275 17.7757 15.353 17.2836 15.339L17.2813 15.3389C16.5867 15.3154 15.9611 15.4028 15.4001 15.5941C14.837 15.7877 14.3685 16.0599 13.986 16.4049C13.5987 16.7536 13.2685 17.1745 12.9965 17.6706C12.7242 18.1674 12.5241 18.7097 12.3973 19.2999C12.2742 19.8901 12.2183 20.5173 12.2317 21.1828L12.2317 21.1846C12.2495 22.2476 12.4598 23.2099 12.8572 24.0788C13.2533 24.9449 13.7983 25.6252 14.4922 26.1313C15.1782 26.6266 15.9413 26.8743 16.7942 26.8743C17.453 26.8743 18.1209 26.7454 18.8001 26.4827C19.4181 26.2408 20.0041 25.8981 20.5586 25.452V19.7428H19.6122V18.8168ZM21.0106 25.687C20.9679 25.7234 20.925 25.7592 20.8819 25.7945C20.8297 25.8371 20.7773 25.8789 20.7246 25.9199C20.6695 25.9626 20.6142 26.0044 20.5586 26.0453C20.1587 26.3392 19.7424 26.5854 19.3098 26.7839C19.1929 26.8375 19.0747 26.8877 18.9554 26.9344C18.2303 27.2149 17.5099 27.3552 16.7942 27.3552C15.8525 27.3552 15.0003 27.0797 14.2376 26.5286C13.4748 25.9725 12.8792 25.226 12.4507 24.2892C12.0223 23.3524 11.7986 22.3204 11.7798 21.1931C11.7657 20.4918 11.8245 19.8255 11.9563 19.1942C12.0929 18.558 12.3095 17.9693 12.6061 17.4283C12.9027 16.8872 13.2653 16.4238 13.6937 16.038C14.09 15.6806 14.5612 15.3985 15.1072 15.192C15.158 15.1728 15.2095 15.1542 15.2616 15.1363C15.8763 14.9266 16.5518 14.8338 17.288 14.858C17.2905 14.858 17.2932 14.8581 17.2957 14.8582C17.823 14.8733 18.2962 14.9534 18.7153 15.0987C18.7325 15.1047 18.7496 15.1107 18.7666 15.1168C18.9758 15.1923 19.1625 15.2781 19.3268 15.3743C19.4726 15.4596 19.6007 15.5531 19.7111 15.6548C19.9559 15.8752 20.1348 16.1182 20.2478 16.3837C20.2914 16.486 20.3234 16.5887 20.3438 16.6917C20.3765 16.8561 20.3798 17.0215 20.3538 17.1878L21.9358 16.7219C21.8794 16.607 21.781 16.4696 21.6403 16.3099L21.6392 16.3086C21.4979 16.1483 21.2907 15.9654 21.0177 15.76C20.7446 15.5546 20.4385 15.3642 20.0995 15.1889C19.9243 15.097 19.7272 15.0113 19.508 14.9318C19.309 14.8596 19.0918 14.7925 18.8565 14.7305C18.8477 14.7282 18.8389 14.7259 18.8301 14.7236C18.3448 14.5978 17.837 14.5225 17.3065 14.4977L17.3047 14.4976L17.3027 14.4975C16.5272 14.4624 15.8022 14.5273 15.1278 14.6922L15.1269 14.6924C15.0764 14.7047 15.0263 14.7176 14.9764 14.7311C14.9323 14.743 14.8885 14.7553 14.8449 14.768C14.0963 14.9885 13.4536 15.3091 12.9169 15.7299C12.3848 16.1457 11.9304 16.6442 11.5538 17.2254C11.1818 17.8015 10.904 18.4277 10.7204 19.104C10.5415 19.7804 10.452 20.4868 10.452 21.2232C10.452 22.135 10.6121 23.0042 10.9323 23.8308C11.2571 24.6574 11.6974 25.3713 12.253 25.9725C12.8133 26.5737 13.4866 27.0521 14.2729 27.4078C15.0639 27.7635 15.9043 27.9414 16.7942 27.9414C17.6747 27.9414 18.4563 27.7685 19.139 27.4229C19.2658 27.3587 19.3905 27.2891 19.5133 27.2142C19.8798 26.9905 20.2283 26.719 20.5586 26.3997C20.7132 26.2502 20.8639 26.0903 21.0106 25.9199V27.8963H22.3313V19.2619H23.2848V18.9087H20.0642V19.2619H21.0106V25.687Z" fill="white"/>
<path d="M16.5542 19.7788L16.8339 21.1645L18.1362 21.4621L16.8339 21.7597L16.5542 23.1454L16.2745 21.7597L14.9722 21.4621L16.2745 21.1645L16.5542 19.7788Z" fill="white"/>
</svg>
