<svg width="111" height="42" viewBox="0 0 111 42" fill="none" xmlns="http://www.w3.org/2000/svg">
<rect x="0.5" y="0.5" width="41" height="41" rx="20.5" stroke="#0B1928"/>
<rect x="3.5" y="3.5" width="35" height="35" rx="17.5" fill="#0B1928" stroke="#0B1928"/>
<path d="M30.6794 14L32.0001 14.0075V18.4863C32.0001 19.4332 31.8824 20.3575 31.647 21.2592C31.4116 22.161 31.082 22.9926 30.6582 23.7541C30.2392 24.5156 29.7283 25.217 29.1256 25.8582C28.523 26.4995 27.8638 27.0456 27.1481 27.4965C26.4324 27.9423 25.6508 28.2905 24.8033 28.541C23.9558 28.7915 23.0871 28.9167 22.1972 28.9167H21.3427V18.8846H22.6987V28.5034C23.7863 28.5034 24.7963 28.3381 25.785 27.8872C26.7738 27.4363 27.6237 26.8327 28.3346 26.0762C29.0503 25.3147 29.62 24.4079 30.0438 23.3558C30.4675 22.3038 30.6794 21.1991 30.6794 20.0418V14Z" fill="white"/>
<path d="M20.0642 18.9089H23.2848V19.2621H22.3313V27.8965H21.0106V25.9202C20.4456 26.5765 19.8217 27.0774 19.139 27.4231C18.4563 27.7688 17.6747 27.9416 16.7942 27.9416C15.9044 27.9416 15.0639 27.7638 14.2729 27.4081C13.4866 27.0524 12.8133 26.5739 12.253 25.9728C11.6974 25.3716 11.2572 24.6577 10.9323 23.8311C10.6121 23.0045 10.452 22.1352 10.452 21.2235C10.452 20.487 10.5415 19.7806 10.7204 19.1043C10.904 18.428 11.1818 17.8018 11.5538 17.2256C11.9305 16.6445 12.3848 16.146 12.9169 15.7302C13.4536 15.3094 14.0963 14.9887 14.845 14.7683C15.5983 14.5479 16.4176 14.4577 17.3028 14.4978C17.8442 14.5228 18.3621 14.6005 18.8565 14.7307C19.3509 14.861 19.7652 15.0138 20.0995 15.1891C20.4385 15.3645 20.7446 15.5548 21.0177 15.7602C21.2908 15.9657 21.4979 16.1485 21.6392 16.3088C21.7804 16.4691 21.8793 16.6069 21.9358 16.7221L20.3538 17.188C20.3962 16.9175 20.3609 16.6495 20.2479 16.384C20.1349 16.1185 19.9559 15.8755 19.7111 15.655C19.4663 15.4296 19.1343 15.2442 18.7153 15.099C18.2962 14.9537 17.823 14.8735 17.2957 14.8585C16.5565 14.8334 15.8785 14.9261 15.2617 15.1365C14.6496 15.3469 14.1269 15.6475 13.6938 16.0383C13.2653 16.4241 12.9027 16.8875 12.6061 17.4285C12.3095 17.9696 12.0929 18.5582 11.9564 19.1945C11.8245 19.8257 11.7657 20.492 11.7798 21.1934C11.7986 22.3206 12.0223 23.3526 12.4507 24.2895C12.8792 25.2263 13.4748 25.9728 14.2376 26.5289C15.0003 27.0799 15.8526 27.3555 16.7942 27.3555C17.5099 27.3555 18.2303 27.2152 18.9554 26.9347C19.6852 26.6491 20.3703 26.2333 21.0106 25.6872V19.2621H20.0642V18.9089Z" fill="white"/>
<path fill-rule="evenodd" clip-rule="evenodd" d="M19.6122 18.8168H23.6026V19.7428H22.6986V28.9166H20.5586V27.0328C20.1741 27.3628 19.7657 27.6382 19.3332 27.8571C18.5806 28.2382 17.7309 28.4223 16.7942 28.4223C15.8461 28.4223 14.9456 28.2325 14.0969 27.8508L14.096 27.8504C13.2598 27.4722 12.5365 26.9598 11.932 26.3112L11.9307 26.3097C11.3322 25.6622 10.8609 24.8959 10.5153 24.0164L10.5143 24.0141C10.1712 23.1282 10 22.1966 10 21.2232C10 20.4448 10.0946 19.6945 10.2853 18.9737L10.2861 18.9706C10.4831 18.2451 10.7816 17.5719 11.1812 16.953L11.1817 16.9523C11.5867 16.3274 12.0763 15.7902 12.649 15.3425C13.2368 14.8818 13.9313 14.538 14.7244 14.3045L14.7251 14.3043C15.5293 14.069 16.3961 13.9751 17.3219 14.017C17.8915 14.0434 18.4398 14.1252 18.9651 14.2636C19.4799 14.3993 19.9267 14.5621 20.2983 14.7569C20.6562 14.9421 20.9834 15.1453 21.2786 15.3673C21.5633 15.5814 21.798 15.7857 21.9689 15.9796C22.1218 16.1531 22.2524 16.3278 22.3365 16.4994L22.5951 17.0267L19.7914 17.8524L19.9079 17.1087C19.9346 16.9383 19.9146 16.7665 19.8361 16.5821C19.7551 16.3918 19.6214 16.2041 19.4191 16.0219L19.4153 16.0185C19.2292 15.8472 18.9564 15.6881 18.5752 15.556C18.2047 15.4275 17.7757 15.353 17.2836 15.339L17.2813 15.3389C16.5867 15.3154 15.9611 15.4028 15.4001 15.5941C14.837 15.7877 14.3685 16.0599 13.986 16.4049C13.5987 16.7536 13.2685 17.1745 12.9965 17.6706C12.7242 18.1674 12.5241 18.7097 12.3973 19.2999C12.2742 19.8901 12.2183 20.5173 12.2317 21.1828L12.2317 21.1846C12.2495 22.2476 12.4598 23.2099 12.8572 24.0788C13.2533 24.9449 13.7983 25.6252 14.4922 26.1313C15.1782 26.6266 15.9413 26.8743 16.7942 26.8743C17.453 26.8743 18.1209 26.7454 18.8001 26.4827C19.4181 26.2408 20.0041 25.8981 20.5586 25.452V19.7428H19.6122V18.8168ZM21.0106 25.687C20.9679 25.7234 20.925 25.7592 20.8819 25.7945C20.8297 25.8371 20.7773 25.8789 20.7246 25.9199C20.6695 25.9626 20.6142 26.0044 20.5586 26.0453C20.1587 26.3392 19.7424 26.5854 19.3098 26.7839C19.1929 26.8375 19.0747 26.8877 18.9554 26.9344C18.2303 27.2149 17.5099 27.3552 16.7942 27.3552C15.8525 27.3552 15.0003 27.0797 14.2376 26.5286C13.4748 25.9725 12.8792 25.226 12.4507 24.2892C12.0223 23.3524 11.7986 22.3204 11.7798 21.1931C11.7657 20.4918 11.8245 19.8255 11.9563 19.1942C12.0929 18.558 12.3095 17.9693 12.6061 17.4283C12.9027 16.8872 13.2653 16.4238 13.6937 16.038C14.09 15.6806 14.5612 15.3985 15.1072 15.192C15.158 15.1728 15.2095 15.1542 15.2616 15.1363C15.8763 14.9266 16.5518 14.8338 17.288 14.858C17.2905 14.858 17.2932 14.8581 17.2957 14.8582C17.823 14.8733 18.2962 14.9534 18.7153 15.0987C18.7325 15.1047 18.7496 15.1107 18.7666 15.1168C18.9758 15.1923 19.1625 15.2781 19.3268 15.3743C19.4726 15.4596 19.6007 15.5531 19.7111 15.6548C19.9559 15.8752 20.1348 16.1182 20.2478 16.3837C20.2914 16.486 20.3234 16.5887 20.3438 16.6917C20.3765 16.8561 20.3798 17.0215 20.3538 17.1878L21.9358 16.7219C21.8794 16.607 21.781 16.4696 21.6403 16.3099L21.6392 16.3086C21.4979 16.1483 21.2907 15.9654 21.0177 15.76C20.7446 15.5546 20.4385 15.3642 20.0995 15.1889C19.9243 15.097 19.7272 15.0113 19.508 14.9318C19.309 14.8596 19.0918 14.7925 18.8565 14.7305C18.8477 14.7282 18.8389 14.7259 18.8301 14.7236C18.3448 14.5978 17.837 14.5225 17.3065 14.4977L17.3047 14.4976L17.3027 14.4975C16.5272 14.4624 15.8022 14.5273 15.1278 14.6922L15.1269 14.6924C15.0764 14.7047 15.0263 14.7176 14.9764 14.7311C14.9323 14.743 14.8885 14.7553 14.8449 14.768C14.0963 14.9885 13.4536 15.3091 12.9169 15.7299C12.3848 16.1457 11.9304 16.6442 11.5538 17.2254C11.1818 17.8015 10.904 18.4277 10.7204 19.104C10.5415 19.7804 10.452 20.4868 10.452 21.2232C10.452 22.135 10.6121 23.0042 10.9323 23.8308C11.2571 24.6574 11.6974 25.3713 12.253 25.9725C12.8133 26.5737 13.4866 27.0521 14.2729 27.4078C15.0639 27.7635 15.9043 27.9414 16.7942 27.9414C17.6747 27.9414 18.4563 27.7685 19.139 27.4229C19.2658 27.3587 19.3905 27.2891 19.5133 27.2142C19.8798 26.9905 20.2283 26.719 20.5586 26.3997C20.7132 26.2502 20.8639 26.0903 21.0106 25.9199V27.8963H22.3313V19.2619H23.2848V18.9087H20.0642V19.2619H21.0106V25.687Z" fill="white"/>
<path d="M16.5542 19.7788L16.8339 21.1645L18.1362 21.4621L16.8339 21.7597L16.5542 23.1454L16.2745 21.7597L14.9722 21.4621L16.2745 21.1645L16.5542 19.7788Z" fill="white"/>
<path d="M108.821 34.9485H107.653V29.6719H108.821V34.9485ZM110.759 29.7584H105.716V28.7637H110.759V29.7584Z" fill="#0B1928"/>
<path d="M100.544 34.9485H99.4026V28.7637H100.631L104.048 33.8326H103.598V28.7637H104.74V34.9485H103.511L100.103 29.8795H100.544V34.9485Z" fill="#0B1928"/>
<path d="M97.1926 33.5904H93.5249V32.6043H97.1926V33.5904ZM98.4555 34.9485H97.2012L95.1771 29.5854H95.5231L93.499 34.9485H92.288L94.7273 28.7637H96.0162L98.4555 34.9485Z" fill="#0B1928"/>
<path d="M87.7771 34.9485H86.6094V28.7637H89.1179C89.5619 28.7637 89.9483 28.8444 90.277 29.0059C90.6115 29.1616 90.871 29.3807 91.0555 29.6633C91.2458 29.9459 91.341 30.2746 91.341 30.6494C91.341 31.0242 91.2458 31.3558 91.0555 31.6442C90.871 31.9267 90.6115 32.1487 90.277 32.3102C89.9483 32.4659 89.5619 32.5438 89.1179 32.5438H87.6906V31.5577H89.1179C89.4408 31.5577 89.6946 31.4769 89.8791 31.3155C90.0636 31.154 90.1559 30.932 90.1559 30.6494C90.1559 30.3726 90.0636 30.1535 89.8791 29.992C89.6946 29.8305 89.4408 29.7498 89.1179 29.7498H87.7771V34.9485ZM91.9724 34.9485H90.5452L88.3567 32.068H89.6975L91.9724 34.9485Z" fill="#0B1928"/>
<path d="M85.3532 28.7637V32.5092C85.3532 33.3223 85.1168 33.9566 84.6439 34.4122C84.1768 34.862 83.5309 35.0869 82.7063 35.0869C81.8874 35.0869 81.2415 34.862 80.7687 34.4122C80.3015 33.9566 80.068 33.3223 80.068 32.5092V28.7637H81.2358V32.5092C81.2358 32.982 81.3655 33.3598 81.625 33.6423C81.8845 33.9191 82.2449 34.0575 82.7063 34.0575C83.1734 34.0575 83.5367 33.9191 83.7962 33.6423C84.0615 33.3598 84.1941 32.982 84.1941 32.5092V28.7637H85.3532Z" fill="#0B1928"/>
<path d="M78.3489 33.5904H74.6813V32.6043H78.3489V33.5904ZM79.6119 34.9485H78.3576L76.3335 29.5854H76.6795L74.6554 34.9485H73.4443L75.8837 28.7637H77.1725L79.6119 34.9485Z" fill="#0B1928"/>
<path d="M71.9191 34.9485H70.7513V29.6719H71.9191V34.9485ZM73.8567 29.7584H68.8137V28.7637H73.8567V29.7584Z" fill="#0B1928"/>
<path d="M62.6703 33.9364L63.4574 33.1493C63.6074 33.3396 63.789 33.5039 64.0024 33.6423C64.2158 33.7807 64.4464 33.8874 64.6944 33.9624C64.9424 34.0373 65.1961 34.0748 65.4556 34.0748C65.7382 34.0748 65.9804 34.0402 66.1822 33.971C66.3898 33.9018 66.5484 33.8038 66.658 33.6769C66.7733 33.5443 66.831 33.3915 66.831 33.2184C66.831 32.9878 66.7185 32.8032 66.4936 32.6648C66.2745 32.5207 65.8795 32.4053 65.3086 32.3188C64.7492 32.2381 64.2936 32.1199 63.9419 31.9642C63.5958 31.8085 63.3392 31.6124 63.172 31.376C63.0105 31.1395 62.9298 30.8599 62.9298 30.5369C62.9298 30.1621 63.0336 29.8305 63.2412 29.5422C63.4546 29.2538 63.7458 29.0289 64.1149 28.8674C64.4839 28.706 64.9049 28.6252 65.3778 28.6252C65.9314 28.6252 66.4244 28.729 66.8569 28.9366C67.2894 29.1442 67.6556 29.4239 67.9555 29.7757L67.177 30.5542C66.9579 30.2716 66.6955 30.0467 66.3898 29.8795C66.09 29.7123 65.7555 29.6287 65.3864 29.6287C65.0116 29.6287 64.7059 29.7065 64.4695 29.8622C64.2331 30.0121 64.1149 30.214 64.1149 30.4677C64.1149 30.6004 64.161 30.7157 64.2533 30.8137C64.3455 30.9118 64.4983 30.9954 64.7117 31.0646C64.9308 31.128 65.225 31.1886 65.594 31.2462C66.1534 31.3327 66.609 31.4596 66.9607 31.6268C67.3183 31.7883 67.5835 31.9959 67.7565 32.2496C67.9296 32.5034 68.0161 32.8061 68.0161 33.1579C68.0161 33.55 67.9065 33.8903 67.6873 34.1786C67.4682 34.4669 67.1655 34.6919 66.7791 34.8533C66.3927 35.009 65.9458 35.0869 65.4383 35.0869C64.8443 35.0869 64.3138 34.9831 63.8467 34.7755C63.3796 34.5621 62.9875 34.2824 62.6703 33.9364Z" fill="#0B1928"/>
<path d="M61.9251 34.9485H57.5741V28.7637H61.9251V29.7498H58.7419V33.9624H61.9251V34.9485ZM61.7607 32.3102H58.6554V31.3241H61.7607V32.3102Z" fill="#0B1928"/>
<path d="M52.5312 34.9485H51.3634V28.7637H53.8719C54.316 28.7637 54.7023 28.8444 55.031 29.0059C55.3655 29.1616 55.625 29.3807 55.8096 29.6633C55.9999 29.9459 56.095 30.2746 56.095 30.6494C56.095 31.0242 55.9999 31.3558 55.8096 31.6442C55.625 31.9267 55.3655 32.1487 55.031 32.3102C54.7023 32.4659 54.316 32.5438 53.8719 32.5438H52.4447V31.5577H53.8719C54.1949 31.5577 54.4486 31.4769 54.6331 31.3155C54.8177 31.154 54.9099 30.932 54.9099 30.6494C54.9099 30.3726 54.8177 30.1535 54.6331 29.992C54.4486 29.8305 54.1949 29.7498 53.8719 29.7498H52.5312V34.9485ZM56.7265 34.9485H55.2992L53.1107 32.068H54.4515L56.7265 34.9485Z" fill="#0B1928"/>
<path d="M78.3366 24.1358H77.1948V17.9509H78.4231L81.8399 23.0199H81.3901V17.9509H82.5319V24.1358H81.3036L77.8955 19.0668H78.3366V24.1358Z" fill="#0B1928"/>
<path d="M74.9848 22.7777H71.3172V21.7916H74.9848V22.7777ZM76.2477 24.1358H74.9935L72.9693 18.7727H73.3153L71.2912 24.1358H70.0802L72.5195 17.9509H73.8084L76.2477 24.1358Z" fill="#0B1928"/>
<path d="M69.2795 24.136H68.1982V23.2883L68.302 23.3315C68.1059 23.6314 67.8378 23.8649 67.4975 24.0322C67.1573 24.1936 66.7738 24.2744 66.3471 24.2744C65.8973 24.2744 65.4792 24.1965 65.0928 24.0408C64.7064 23.8851 64.3691 23.6631 64.0807 23.3748C63.7924 23.0864 63.5675 22.7433 63.406 22.3454C63.2503 21.9475 63.1725 21.5121 63.1725 21.0392C63.1725 20.5721 63.2532 20.1425 63.4147 19.7504C63.5819 19.3582 63.8126 19.018 64.1067 18.7297C64.4066 18.4413 64.7583 18.2164 65.162 18.0549C65.5657 17.8935 66.0068 17.8127 66.4855 17.8127C67.0275 17.8127 67.5235 17.9194 67.9733 18.1328C68.4231 18.3462 68.7864 18.6259 69.0632 18.9719L68.2933 19.7504C68.0915 19.4736 67.8349 19.2544 67.5235 19.093C67.2179 18.9257 66.8718 18.8421 66.4855 18.8421C66.0818 18.8421 65.7214 18.9373 65.4042 19.1276C65.0928 19.3179 64.8477 19.5774 64.669 19.9061C64.4902 20.2348 64.4008 20.6125 64.4008 21.0392C64.4008 21.4717 64.4902 21.8552 64.669 22.1897C64.8477 22.5242 65.0957 22.7866 65.4129 22.9769C65.73 23.1672 66.0933 23.2623 66.5028 23.2623C66.9064 23.2623 67.2669 23.1758 67.584 23.0028C67.9012 22.8298 68.1319 22.5818 68.276 22.2589L68.1895 22.5963V21.6966H66.4076V20.7538H69.2795V24.136Z" fill="#0B1928"/>
<path d="M62.3646 24.1358H58.0135V17.9509H62.3646V18.937H59.1813V23.1496H62.3646V24.1358ZM62.2002 21.4975H59.0948V20.5114H62.2002V21.4975Z" fill="#0B1928"/>
<path d="M54.6244 24.1358H53.4393L51 17.9509H52.2716L54.2092 23.2275H53.8891L55.8268 17.9509H57.0551L54.6244 24.1358Z" fill="#0B1928"/>
<path d="M94.9443 13.3233H93.7765V8.04669H94.9443V13.3233ZM96.8819 8.13319H91.8389V7.13843H96.8819V8.13319Z" fill="#0B1928"/>
<path d="M91.0851 13.3233H86.7341V7.13843H91.0851V8.12454H87.9019V12.3371H91.0851V13.3233ZM90.9208 10.685H87.8154V9.69886H90.9208V10.685Z" fill="#0B1928"/>
<path d="M82.5042 12.6572H81.6392L79.2258 7.61418L79.8313 7.60553V13.3233H78.7068V7.13843H80.0562L82.3139 11.8787H81.8381L84.0958 7.13843H85.4279V13.3233H84.2861V7.60553L84.9176 7.61418L82.5042 12.6572Z" fill="#0B1928"/>
<path d="M73.6725 13.3233H72.5048V7.13843H75.0133C75.4573 7.13843 75.8437 7.21916 76.1724 7.38063C76.5069 7.53633 76.7664 7.75547 76.9509 8.03804C77.1412 8.32061 77.2364 8.64931 77.2364 9.02415C77.2364 9.39899 77.1412 9.73058 76.9509 10.0189C76.7664 10.3015 76.5069 10.5235 76.1724 10.685C75.8437 10.8407 75.4573 10.9185 75.0133 10.9185H73.586V9.93241H75.0133C75.3362 9.93241 75.59 9.85168 75.7745 9.69021C75.959 9.52874 76.0513 9.30672 76.0513 9.02415C76.0513 8.74735 75.959 8.52821 75.7745 8.36674C75.59 8.20527 75.3362 8.12454 75.0133 8.12454H73.6725V13.3233ZM77.8678 13.3233H76.4406L74.2521 10.4428H75.5928L77.8678 13.3233Z" fill="#0B1928"/>
<path d="M71.2483 7.13843V10.8839C71.2483 11.697 71.0119 12.3314 70.539 12.7869C70.0719 13.2368 69.4261 13.4617 68.6014 13.4617C67.7825 13.4617 67.1367 13.2368 66.6638 12.7869C66.1967 12.3314 65.9631 11.697 65.9631 10.8839V7.13843H67.1309V10.8839C67.1309 11.3568 67.2607 11.7345 67.5202 12.0171C67.7797 12.2939 68.1401 12.4323 68.6014 12.4323C69.0685 12.4323 69.4318 12.2939 69.6913 12.0171C69.9566 11.7345 70.0892 11.3568 70.0892 10.8839V7.13843H71.2483Z" fill="#0B1928"/>
<path d="M61.5753 13.4616C61.0967 13.4616 60.6555 13.3809 60.2519 13.2194C59.854 13.058 59.5051 12.8331 59.2052 12.5447C58.9053 12.2564 58.6747 11.9161 58.5132 11.524C58.3517 11.1261 58.271 10.6936 58.271 10.2265C58.271 9.75938 58.3517 9.32976 58.5132 8.93762C58.6747 8.54549 58.9053 8.20525 59.2052 7.91691C59.5051 7.62857 59.854 7.40367 60.2519 7.2422C60.6555 7.08073 61.0967 7 61.5753 7C62.054 7 62.4922 7.08073 62.8902 7.2422C63.2938 7.40367 63.6456 7.62857 63.9455 7.91691C64.2453 8.20525 64.476 8.54549 64.6375 8.93762C64.7989 9.32976 64.8797 9.75938 64.8797 10.2265C64.8797 10.6936 64.7989 11.1261 64.6375 11.524C64.476 11.9161 64.2453 12.2564 63.9455 12.5447C63.6456 12.8331 63.2938 13.058 62.8902 13.2194C62.4922 13.3809 62.054 13.4616 61.5753 13.4616ZM61.5753 12.4323C61.9848 12.4323 62.3452 12.3371 62.6566 12.1468C62.968 11.9565 63.2102 11.697 63.3832 11.3683C63.562 11.0338 63.6514 10.6532 63.6514 10.2265C63.6514 9.79975 63.562 9.42203 63.3832 9.09333C63.2102 8.76462 62.968 8.50512 62.6566 8.31482C62.3452 8.12451 61.9848 8.02936 61.5753 8.02936C61.1717 8.02936 60.8112 8.12451 60.4941 8.31482C60.1827 8.50512 59.9376 8.76462 59.7588 9.09333C59.5858 9.42203 59.4993 9.79975 59.4993 10.2265C59.4993 10.6532 59.5858 11.0338 59.7588 11.3683C59.9376 11.697 60.1827 11.9565 60.4941 12.1468C60.8112 12.3371 61.1717 12.4323 61.5753 12.4323Z" fill="#0B1928"/>
<path d="M57.2886 13.3232H56.2074V12.4755L56.3112 12.5188C56.1151 12.8186 55.8469 13.0522 55.5067 13.2194C55.1665 13.3809 54.783 13.4616 54.3562 13.4616C53.9064 13.4616 53.4883 13.3838 53.102 13.2281C52.7156 13.0724 52.3782 12.8504 52.0899 12.562C51.8016 12.2737 51.5767 11.9306 51.4152 11.5327C51.2595 11.1348 51.1816 10.6994 51.1816 10.2265C51.1816 9.75938 51.2624 9.32976 51.4238 8.93762C51.5911 8.54549 51.8217 8.20525 52.1159 7.91691C52.4157 7.62857 52.7675 7.40367 53.1712 7.2422C53.5748 7.08073 54.016 7 54.4946 7C55.0367 7 55.5326 7.10668 55.9824 7.32005C56.4323 7.53342 56.7956 7.81311 57.0724 8.15911L56.3025 8.93762C56.1007 8.66082 55.844 8.44168 55.5326 8.28022C55.227 8.11298 54.881 8.02936 54.4946 8.02936C54.091 8.02936 53.7305 8.12451 53.4134 8.31482C53.102 8.50512 52.8569 8.76462 52.6781 9.09333C52.4993 9.42203 52.41 9.79975 52.41 10.2265C52.41 10.659 52.4993 11.0425 52.6781 11.377C52.8569 11.7114 53.1048 11.9738 53.422 12.1641C53.7392 12.3544 54.1025 12.4496 54.5119 12.4496C54.9156 12.4496 55.276 12.3631 55.5932 12.1901C55.9104 12.0171 56.141 11.7691 56.2852 11.4462L56.1987 11.7835V10.8839H54.4168V9.94104H57.2886V13.3232Z" fill="#0B1928"/>
</svg>
