<svg 
  width="20" 
  height="20" 
  viewBox="0 0 20 20" 
  fill="none" 
  xmlns="http://www.w3.org/2000/svg"
>
  <path fill-rule="evenodd" clip-rule="evenodd" d="M10 19C10.1413 19 10.2732 18.9258 10.3516 18.8024C10.738 18.1935 11.1796 17.544 11.646 16.8581C11.7859 16.6523 11.928 16.4432 12.0716 16.2309C12.6905 15.3158 13.3311 14.3484 13.9092 13.3612C15.0564 11.4022 16 9.29694 16 7.30178C16 3.82658 13.3088 1 10 1C6.69123 1 4 3.82658 4 7.30178C4 9.29694 4.94363 11.4022 6.09079 13.3612C6.66891 14.3484 7.30947 15.3158 7.92842 16.2309C8.07198 16.4432 8.21413 16.6523 8.35404 16.8581C8.8204 17.544 9.26196 18.1935 9.64843 18.8024C9.72679 18.9258 9.85872 19 10 19ZM6.81062 12.8962C5.67609 10.9588 4.84507 9.03442 4.84507 7.30178C4.84507 4.31678 7.15795 1.88758 10 1.88758C12.8421 1.88758 15.1549 4.31678 15.1549 7.30178C15.1549 9.03442 14.3239 10.9588 13.1894 12.8962C12.6267 13.8572 11.9996 14.8047 11.3826 15.7169C11.2424 15.9243 11.1024 16.1302 10.9637 16.3341C10.6294 16.8259 10.3031 17.3059 10 17.7667C9.69694 17.3059 9.37057 16.8259 9.03626 16.3341C8.89763 16.1302 8.75762 15.9243 8.61735 15.7169C8.00039 14.8047 7.37334 13.8572 6.81062 12.8962Z" fill="#0B1928" stroke="#0B1928" stroke-width="0.5" stroke-miterlimit="10" stroke-linecap="round" stroke-linejoin="round"/>
  <path fill-rule="evenodd" clip-rule="evenodd" d="M7 7C7 8.65451 8.34549 10 10 10C11.6545 10 13 8.65451 13 7C13 5.34549 11.6545 4 10 4C8.34549 4 7 5.34549 7 7ZM10 9.14285C8.81888 9.14285 7.85715 8.18112 7.85715 7C7.85715 5.81888 8.81888 4.85714 10 4.85714C11.1811 4.85714 12.1429 5.81888 12.1429 7C12.1429 8.18112 11.1811 9.14285 10 9.14285Z" fill="#0B1928" stroke="#0B1928" stroke-width="0.5" stroke-miterlimit="10" stroke-linecap="round" stroke-linejoin="round"/>
</svg>
