<svg width="40" height="40" viewBox="0 0 40 40" fill="none" xmlns="http://www.w3.org/2000/svg">
<path d="M32.8571 21.4516H30.6253C30.8194 21.0645 31.1752 20.129 31.6927 18.6452V18.5484C31.7574 18.4839 31.8221 18.3548 31.8868 18.1613C31.9515 17.9677 32.0162 17.8387 32.0809 17.7742L32.1779 18.6452L32.8571 21.4516ZM10.248 20.4839L9.37466 15.8387C9.24528 15.2581 8.88949 14.9677 8.30728 14.9677C8.24259 14.9677 8.21024 14.9677 8.21024 14.9677H3.9407V15.2581C7.1752 16.0323 9.27763 17.7742 10.248 20.4839ZM13.062 14.9677L10.5391 21.8387L10.248 20.4839C9.92453 19.7097 9.4717 19.0323 8.88949 18.4516C8.30728 17.871 7.62803 17.4194 6.85175 17.0968L8.98652 25.0323H11.7035L15.779 14.9677H13.062ZM15.1968 25.0323H17.8167L19.4663 14.9677H16.8464L15.1968 25.0323ZM27.2291 15.2581C26.5175 15 25.7412 14.871 24.9003 14.871C24.8356 14.8065 24.7709 14.7742 24.7062 14.7742C23.6065 14.7742 22.6361 15.0968 21.7951 15.7419C20.9542 16.3226 20.5337 17.129 20.5337 18.1613C20.5337 19.1935 21.2776 20.0968 22.7655 20.871C23.1536 21 23.5094 21.1935 23.8329 21.4516C24.027 21.6452 24.124 21.871 24.124 22.129C24.124 22.4516 23.9623 22.6774 23.6388 22.8065C23.3154 23 22.9919 23.0968 22.6685 23.0968H22.5714C22.5067 23.0968 22.4744 23.0968 22.4744 23.0968C21.6334 23.0968 20.8571 22.9355 20.1456 22.6129L19.7574 22.4194L19.4663 24.6452C20.3073 24.9677 21.1806 25.129 22.0863 25.129C22.2156 25.129 22.3127 25.129 22.3774 25.129C22.442 25.129 22.5391 25.129 22.6685 25.129C23.7682 25.129 24.7385 24.8387 25.5795 24.2581C26.4205 23.6129 26.841 22.7742 26.841 21.7419C26.841 20.6452 26.1294 19.7419 24.7062 19.0323C24.3181 18.8387 23.9299 18.6129 23.5418 18.3548C23.3477 18.2258 23.2507 18.0323 23.2507 17.7742C23.2507 17.5161 23.3801 17.3226 23.6388 17.1935C23.8976 17 24.221 16.9032 24.6092 16.9032C24.6092 16.9032 24.6415 16.9032 24.7062 16.9032C24.7709 16.9032 24.8356 16.9032 24.9003 16.9032C25.4825 16.9032 26.0647 17.0323 26.6469 17.2903L26.841 17.4839L27.2291 15.2581ZM33.8275 14.9677H31.8868C31.8221 14.9677 31.7898 14.9677 31.7898 14.9677C31.1429 14.9677 30.7224 15.2581 30.5283 15.8387L26.6469 25.0323H29.3639L29.9461 23.5806H33.2453C33.2453 23.6452 33.3423 24.129 33.5364 25.0323H35.9623L33.8275 14.9677ZM38 10.0323V29.9677C37.9353 30.3548 37.8221 30.6935 37.6604 30.9839C37.4987 31.2742 37.2722 31.5 36.9811 31.6613C36.69 31.8226 36.3504 31.9355 35.9623 32H3.9407C3.42318 31.9355 2.97035 31.7097 2.58221 31.3226C2.19407 30.9355 2 30.4839 2 29.9677V10.0323C2 9.51613 2.19407 9.06452 2.58221 8.67742C2.97035 8.29032 3.42318 8.06452 3.9407 8H35.9623C36.4798 8.06452 36.9326 8.29032 37.3208 8.67742C37.7089 9.06452 37.903 9.51613 37.903 10.0323H38Z" fill="white"/>
</svg>
