<svg width="40" height="40" viewBox="0 0 40 40" fill="none" xmlns="http://www.w3.org/2000/svg">
<path d="M3 17.8537C3 17.2683 3.24638 16.9756 3.73913 16.9756H36.2609C36.7536 16.9756 37 17.2683 37 17.8537V27.122C37 28.4878 36.5534 29.6423 35.6603 30.5854C34.7672 31.5285 33.7047 32 32.4728 32H32.3804H7.61957H7.52717C6.29529 32 5.23279 31.5285 4.33967 30.5854C3.44656 29.6423 3 28.4878 3 27.122V17.8537ZM11.5 23.7073C11.5616 23.7073 11.6232 23.7073 11.6848 23.7073C12.1159 23.7073 12.4701 23.561 12.7473 23.2683C13.0245 22.9756 13.163 22.6341 13.163 22.2439C13.163 21.8537 13.0245 21.5122 12.7473 21.2195C12.4701 20.9268 12.1159 20.7805 11.6848 20.7805C11.6232 20.7805 11.5616 20.7805 11.5 20.7805H9.375C9.25181 20.7805 9.15942 20.7805 9.09783 20.7805C8.72826 20.7805 8.40489 20.9268 8.12772 21.2195C7.85054 21.5122 7.71196 21.8537 7.71196 22.2439C7.71196 22.6341 7.85054 22.9756 8.12772 23.2683C8.40489 23.561 8.72826 23.7073 9.09783 23.7073C9.15942 23.7073 9.25181 23.7073 9.375 23.7073H11.5ZM37 13.1707C37 13.7561 36.7536 14.0488 36.2609 14.0488H3.73913C3.24638 14.0488 3 13.7561 3 13.1707V12.878C3 11.5122 3.44656 10.3577 4.33967 9.41463C5.23279 8.47155 6.29529 8 7.52717 8H7.61957H32.3804H32.4728C33.7047 8 34.7672 8.47155 35.6603 9.41463C36.5534 10.3577 37 11.5122 37 12.878V13.1707Z" fill="white"/>
</svg>
