<svg width="40" height="40" viewBox="0 0 40 40" fill="none" xmlns="http://www.w3.org/2000/svg">
<path d="M3 8H37V27.1818H3V8ZM15.2216 24.8182C14.7315 24.2727 14.3027 23.5909 13.9351 22.7727C13.5676 21.9545 13.2766 21.1061 13.0622 20.2273C12.8477 19.3485 12.7405 18.5455 12.7405 17.8182C12.7405 17.7576 12.7405 17.6818 12.7405 17.5909C12.7405 17.5 12.7405 17.4242 12.7405 17.3636C12.7405 16.6364 12.8477 15.8485 13.0622 15C13.2766 14.1515 13.5676 13.3182 13.9351 12.5C14.3027 11.6818 14.7315 10.9697 15.2216 10.3636H10.2595C10.2595 11.697 9.78468 12.8333 8.83513 13.7727C7.88559 14.7121 6.76757 15.1818 5.48108 15.1818H5.38919V21.1818C6.43063 21.1818 7.3036 21.5303 8.00811 22.2273C8.71261 22.9242 9.06487 23.7879 9.06487 24.8182H15.2216ZM34.5189 21.1818V15.1818C33.1712 15.1818 32.0225 14.7121 31.073 13.7727C30.1234 12.8333 29.6486 11.697 29.6486 10.3636H24.7784C25.1459 10.7879 25.4829 11.303 25.7892 11.9091C26.0955 12.5152 26.3559 13.1212 26.5703 13.7273C26.7847 14.3333 26.9532 14.9545 27.0757 15.5909C27.1982 16.2273 27.2595 16.8182 27.2595 17.3636C27.2595 17.4242 27.2595 17.5 27.2595 17.5909C27.2595 17.6818 27.2595 17.7576 27.2595 17.8182C27.2595 18.9091 27.0144 20.1364 26.5243 21.5C26.0342 22.8636 25.4523 23.9697 24.7784 24.8182H30.9351C30.9351 23.7879 31.2874 22.9242 31.9919 22.2273C32.6964 21.5303 33.5387 21.1818 34.5189 21.1818ZM3 29.6364H37V32H3V29.6364Z" fill="white"/>
</svg>
