<svg width="40" height="40" viewBox="0 0 40 40" fill="none" xmlns="http://www.w3.org/2000/svg">
<path d="M33.6739 8C34.5978 8 35.3832 8.30216 36.0299 8.90648C36.6766 9.51079 37 10.2446 37 11.1079V28.8921C37 29.295 36.923 29.6835 36.769 30.0576C36.615 30.4317 36.3841 30.7626 36.0761 31.0504C35.7681 31.3381 35.4139 31.5683 35.0136 31.741C34.6132 31.9137 34.1667 32 33.6739 32H6.32609C5.40217 32 4.61685 31.6978 3.97011 31.0935C3.32337 30.4892 3 29.7554 3 28.8921V11.1079C3 10.3022 3.32337 9.59712 3.97011 8.99281C4.61685 8.38849 5.40217 8.05755 6.32609 8H33.6739ZM7.80435 14.7338V17.0647C7.80435 17.7554 8.06612 18.3597 8.58967 18.8777C9.11322 19.3957 9.77536 19.6547 10.5761 19.6547H12.9783C13.779 19.6547 14.4411 19.3957 14.9647 18.8777C15.4882 18.3597 15.75 17.7554 15.75 17.0647V14.7338C15.75 14.0432 15.4882 13.4532 14.9647 12.964C14.4411 12.4748 13.779 12.2302 12.9783 12.2302H10.5761C9.77536 12.2302 9.11322 12.4748 8.58967 12.964C8.06612 13.4532 7.80435 14.0432 7.80435 14.7338ZM15.9348 27.8561C16.6123 27.7986 16.9511 27.4532 16.9511 26.8201C16.9511 26.1871 16.6123 25.8417 15.9348 25.7842H8.91304C8.91304 25.7842 8.88225 25.7842 8.82065 25.7842C8.51268 25.7842 8.25091 25.8849 8.03533 26.0863C7.81975 26.2878 7.71196 26.5324 7.71196 26.8201C7.71196 26.9928 7.74275 27.1367 7.80435 27.2518C7.86594 27.3669 7.94293 27.4676 8.03533 27.554C8.12772 27.6403 8.25091 27.7122 8.40489 27.7698C8.55888 27.8273 8.69746 27.8561 8.82065 27.8561C8.88225 27.8561 8.91304 27.8561 8.91304 27.8561H15.9348ZM19.3533 24.0576C20.0308 24 20.3696 23.6547 20.3696 23.0216C20.3696 22.3885 20.0308 22.0432 19.3533 21.9856H8.91304C8.91304 21.9856 8.88225 21.9856 8.82065 21.9856C8.51268 21.9856 8.25091 22.0863 8.03533 22.2878C7.81975 22.4892 7.71196 22.7338 7.71196 23.0216C7.71196 23.3094 7.81975 23.554 8.03533 23.7554C8.25091 23.9568 8.51268 24.0576 8.82065 24.0576C8.88225 24.0576 8.91304 24.0576 8.91304 24.0576H19.3533ZM24.0652 22.8058C24.0652 22.8058 24.0652 22.8705 24.0652 23C24.0652 23.1295 24.173 23.295 24.3886 23.4964C24.6042 23.6978 24.8659 23.7986 25.1739 23.7986C25.4819 23.7986 25.7283 23.7122 25.913 23.5396C27.0833 22.446 27.6685 21.1511 27.6685 19.6547C27.6685 18.1583 27.0833 16.8633 25.913 15.7698C25.7283 15.5971 25.4819 15.5108 25.1739 15.5108C24.9891 15.5108 24.8197 15.554 24.6658 15.6403C24.5118 15.7266 24.3732 15.8561 24.25 16.0288C24.1268 16.2014 24.0652 16.3741 24.0652 16.5468C24.0652 16.777 24.1576 17.0072 24.3424 17.2374C25.0815 17.9281 25.4511 18.7338 25.4511 19.6547C25.4511 20.5755 25.0815 21.3813 24.3424 22.0719C24.1576 22.3022 24.0652 22.5468 24.0652 22.8058ZM28.8696 26.2158C29.7935 25.5252 30.5788 24.5324 31.2255 23.2374C31.8723 21.9424 32.1957 20.7482 32.1957 19.6547C32.1957 18.5612 31.8723 17.3669 31.2255 16.0719C30.5788 14.777 29.7627 13.7554 28.7772 13.0072C28.5924 12.8921 28.3768 12.8345 28.1304 12.8345C27.8225 12.8345 27.5607 12.9353 27.3451 13.1367C27.1295 13.3381 27.0217 13.5827 27.0217 13.8705C27.0217 14.1583 27.1449 14.4173 27.3913 14.6475C28.1304 15.1655 28.7464 15.9137 29.2391 16.8921C29.7319 17.8705 29.9783 18.7914 29.9783 19.6547C29.9783 20.518 29.7319 21.4245 29.2391 22.3741C28.7464 23.3237 28.1612 24.0863 27.4837 24.6619C27.1757 24.8345 27.0217 25.0935 27.0217 25.4388C27.0217 25.7266 27.1295 25.9712 27.3451 26.1727C27.5607 26.3741 27.8225 26.4748 28.1304 26.4748C28.4384 26.4748 28.6848 26.3885 28.8696 26.2158Z" fill="white"/>
</svg>
