<svg width="40" height="40" viewBox="0 0 40 40" fill="none" xmlns="http://www.w3.org/2000/svg">
<path d="M12.0749 20.576H11.8717C11.3298 20.576 11.0588 20.736 11.0588 21.056C11.0588 21.312 11.1604 21.44 11.3636 21.44C11.5668 21.44 11.7362 21.344 11.8717 21.152C12.0071 20.96 12.0749 20.768 12.0749 20.576ZM18.5775 20H19.5936V19.904V19.808C19.5936 19.808 19.5936 19.776 19.5936 19.712C19.5936 19.712 19.5936 19.68 19.5936 19.616C19.5936 19.552 19.5766 19.504 19.5428 19.472C19.5089 19.44 19.4581 19.424 19.3904 19.424C19.3226 19.424 19.2549 19.424 19.1872 19.424C18.8485 19.424 18.6453 19.616 18.5775 20ZM27.5187 20.576H27.3155C26.7736 20.576 26.5027 20.736 26.5027 21.056C26.5027 21.312 26.6043 21.44 26.8075 21.44C27.0107 21.44 27.18 21.344 27.3155 21.152C27.451 20.96 27.5187 20.768 27.5187 20.576ZM32.8021 20.192C32.8021 19.744 32.5989 19.52 32.1925 19.52C31.9893 19.52 31.82 19.616 31.6845 19.808C31.549 20.064 31.4813 20.32 31.4813 20.576C31.4813 20.576 31.4813 20.608 31.4813 20.672C31.4813 21.056 31.6506 21.248 31.9893 21.248C32.1925 21.248 32.3619 21.152 32.4973 20.96C32.6328 20.768 32.7005 20.512 32.7005 20.192H32.8021ZM8.92513 17.984H10.3476L9.63636 22.016H8.72192L9.22995 18.944L8.01069 22.016H7.40107L7.29947 18.944L6.79144 22.016H5.87701L6.58824 17.984H8.01069V20.48L8.92513 17.984ZM13.0909 19.616C13.0909 19.808 13.057 20.032 12.9893 20.288C12.8538 21.376 12.7522 21.952 12.6845 22.016H11.9733V21.728C11.7023 21.984 11.3975 22.112 11.0588 22.112C11.0588 22.112 11.025 22.112 10.9572 22.112C10.754 22.112 10.5677 22.032 10.3984 21.872C10.2291 21.712 10.1444 21.504 10.1444 21.248C10.1444 21.184 10.1444 21.152 10.1444 21.152C10.1444 20.768 10.2799 20.48 10.5508 20.288C10.8895 20.032 11.262 19.904 11.6684 19.904C11.7362 19.904 11.7701 19.904 11.7701 19.904C11.8378 19.904 11.9055 19.904 11.9733 19.904C12.041 19.904 12.1087 19.904 12.1765 19.904V19.808V19.712C12.1765 19.52 11.9733 19.424 11.5668 19.424C11.2282 19.424 10.8895 19.488 10.5508 19.616C10.5508 19.552 10.6185 19.296 10.754 18.848C11.0927 18.72 11.4314 18.656 11.7701 18.656C12.5829 18.656 12.9893 18.976 12.9893 19.616H13.0909ZM15.631 18.752L15.5294 19.52C15.3262 19.456 15.0891 19.424 14.8182 19.424C14.5472 19.424 14.4118 19.52 14.4118 19.712C14.4118 19.776 14.4456 19.84 14.5134 19.904C14.5811 19.968 14.6827 20.032 14.8182 20.096C15.2923 20.224 15.5294 20.512 15.5294 20.96V21.056C15.5294 21.76 15.0214 22.112 14.0053 22.112C13.6667 22.112 13.3619 22.08 13.0909 22.016C13.0909 22.016 13.1248 21.76 13.1925 21.248C13.4635 21.312 13.7344 21.376 14.0053 21.44C14.4118 21.44 14.615 21.312 14.615 21.056C14.615 20.992 14.5811 20.96 14.5134 20.96C14.3779 20.832 14.2424 20.768 14.107 20.768C13.7005 20.576 13.4635 20.256 13.3957 19.808C13.3957 19.04 13.8699 18.656 14.8182 18.656C14.8859 18.656 14.9198 18.656 14.9198 18.656C15.1907 18.656 15.4278 18.688 15.631 18.752ZM17.0535 18.752H17.5615L17.4599 19.52H16.9519C16.9519 19.712 16.918 19.936 16.8503 20.192C16.8503 20.256 16.8503 20.32 16.8503 20.384C16.7825 20.576 16.7487 20.704 16.7487 20.768C16.7487 20.896 16.7148 20.992 16.6471 21.056C16.6471 21.248 16.7825 21.344 17.0535 21.344C17.1212 21.344 17.1889 21.312 17.2567 21.248L17.1551 22.016C16.9519 22.08 16.7148 22.112 16.4438 22.112C15.9697 22.112 15.7326 21.856 15.7326 21.344C15.7326 21.088 15.7665 20.8 15.8342 20.48C15.902 20.16 16.0374 19.424 16.2406 18.272H17.1551L17.0535 18.752ZM20.4064 19.904C20.4064 20.16 20.3725 20.416 20.3048 20.672H18.4759C18.4759 20.736 18.4759 20.768 18.4759 20.768C18.4759 20.96 18.5437 21.12 18.6791 21.248C18.8824 21.312 19.0856 21.344 19.2888 21.344C19.6275 21.344 19.9661 21.28 20.3048 21.152L20.1016 22.016C19.8307 22.08 19.5258 22.112 19.1872 22.112C19.1194 22.112 19.0517 22.112 18.984 22.112C18.1711 22.112 17.697 21.728 17.5615 20.96C17.5615 20.896 17.5615 20.848 17.5615 20.816C17.5615 20.784 17.5615 20.736 17.5615 20.672C17.5615 20.608 17.5615 20.576 17.5615 20.576C17.5615 20.064 17.7308 19.616 18.0695 19.232C18.3405 18.848 18.713 18.656 19.1872 18.656C19.2549 18.656 19.2888 18.656 19.2888 18.656C19.6275 18.656 19.9153 18.768 20.1524 18.992C20.3895 19.216 20.508 19.488 20.508 19.808C20.508 19.808 20.508 19.84 20.508 19.904H20.4064ZM22.7433 18.752C22.6078 19.072 22.5062 19.392 22.4385 19.712C22.1676 19.712 21.9643 19.84 21.8289 20.096C21.6934 20.736 21.5579 21.408 21.4225 22.112H20.508L20.6096 21.824C20.8128 20.544 20.9822 19.52 21.1176 18.752H21.9305L21.8289 19.232C21.9643 19.04 22.1337 18.88 22.3369 18.752C22.4046 18.688 22.5062 18.656 22.6417 18.656C22.6417 18.656 22.6756 18.688 22.7433 18.752ZM25.7914 18.08L25.6898 18.944C25.4866 18.816 25.2157 18.752 24.877 18.752C24.5383 18.752 24.2674 18.912 24.0642 19.232C23.861 19.488 23.7594 19.808 23.7594 20.192C23.7594 20.256 23.7594 20.288 23.7594 20.288C23.7594 20.288 23.7594 20.32 23.7594 20.384C23.7594 20.576 23.8271 20.8 23.9626 21.056C24.098 21.184 24.3012 21.248 24.5722 21.248C24.8431 21.248 25.1141 21.184 25.385 21.056L25.1818 22.016C24.9109 22.08 24.6399 22.112 24.369 22.112C23.8948 22.112 23.4884 21.952 23.1497 21.632C22.8788 21.312 22.7433 20.928 22.7433 20.48C22.7433 20.416 22.7433 20.368 22.7433 20.336C22.7433 20.304 22.7433 20.256 22.7433 20.192C22.7433 19.616 22.9465 19.072 23.3529 18.56C23.6916 18.112 24.1658 17.888 24.7754 17.888H24.877C25.2157 17.888 25.5544 17.952 25.893 18.08H25.7914ZM28.5348 19.616C28.5348 19.872 28.5009 20.096 28.4332 20.288C28.2977 21.12 28.1961 21.696 28.1283 22.016H27.4171V21.728C27.2139 21.984 26.9091 22.112 26.5027 22.112C26.5027 22.112 26.4688 22.112 26.4011 22.112C26.1979 22.112 26.0116 22.032 25.8422 21.872C25.6729 21.712 25.5882 21.504 25.5882 21.248C25.5882 21.184 25.5882 21.152 25.5882 21.152C25.5882 20.832 25.7237 20.544 25.9947 20.288C26.3333 20.032 26.7059 19.904 27.1123 19.904C27.1123 19.904 27.1462 19.904 27.2139 19.904C27.2816 19.904 27.3494 19.904 27.4171 19.904C27.4848 19.904 27.5526 19.904 27.6203 19.904C27.6203 19.84 27.6203 19.776 27.6203 19.712C27.6203 19.52 27.4171 19.424 27.0107 19.424C26.672 19.424 26.3672 19.488 26.0963 19.616C26.0963 19.552 26.1301 19.296 26.1979 18.848C26.5365 18.72 26.9091 18.656 27.3155 18.656C28.1283 18.656 28.5348 18.976 28.5348 19.616ZM30.8717 18.752C30.6684 19.072 30.533 19.392 30.4652 19.712C30.1943 19.712 30.025 19.84 29.9572 20.096C29.8217 20.736 29.6863 21.408 29.5508 22.112H28.6364V21.824C28.8396 20.8 29.0089 19.776 29.1444 18.752H30.0588C30.0588 18.944 30.025 19.104 29.9572 19.232C30.0927 19.04 30.2282 18.88 30.3636 18.752C30.4991 18.688 30.6007 18.656 30.6684 18.656C30.7362 18.656 30.8039 18.688 30.8717 18.752ZM33.2086 17.984H34.123L33.4118 22.016H32.4973L32.5989 21.728C32.328 21.984 32.0232 22.112 31.6845 22.112C31.3458 22.112 31.0749 21.984 30.8717 21.728C30.6684 21.472 30.5668 21.184 30.5668 20.864C30.5668 20.8 30.5668 20.768 30.5668 20.768C30.5668 20.768 30.5668 20.736 30.5668 20.672C30.5668 20.16 30.7362 19.712 31.0749 19.328C31.2781 18.944 31.6168 18.752 32.0909 18.752C32.4296 18.752 32.7344 18.88 33.0053 19.136L33.2086 17.984ZM35.0374 20C35.0374 17.632 34.1569 15.632 32.3957 14C30.6346 12.368 28.5009 11.552 25.9947 11.552C24.0303 11.552 22.2353 12.096 20.6096 13.184C22.0321 14.4 22.9804 15.904 23.4545 17.696H22.6417C22.1676 16.096 21.287 14.784 20 13.76C18.713 14.784 17.8324 16.096 17.3583 17.696H16.5455C17.0196 15.904 17.9679 14.4 19.3904 13.184C17.7647 12.096 15.9697 11.552 14.0053 11.552C11.4991 11.552 9.36542 12.368 7.60428 14C5.84314 15.632 4.96257 17.632 4.96257 20C4.96257 22.368 5.84314 24.368 7.60428 26C9.36542 27.632 11.4991 28.448 14.0053 28.448C15.9697 28.448 17.7647 27.904 19.3904 26.816C18.1034 25.664 17.1889 24.288 16.6471 22.688H17.4599C18.0018 24.096 18.8485 25.28 20 26.24C21.1515 25.28 21.9982 24.096 22.5401 22.688H23.3529C22.8111 24.288 21.8966 25.664 20.6096 26.816C22.2353 27.968 24.0303 28.544 25.9947 28.544C28.5009 28.544 30.6346 27.712 32.3957 26.048C34.1569 24.384 35.0374 22.368 35.0374 20ZM39 10.016V29.984C39 30.368 38.8984 30.704 38.6952 30.992C38.492 31.28 38.238 31.52 37.9332 31.712C37.6283 31.904 37.2727 32 36.8663 32H3.13369H3.03209C2.4902 32 2.01604 31.808 1.60963 31.424C1.20321 31.04 1 30.56 1 29.984V10.016C1 9.44 1.20321 8.96 1.60963 8.576C2.01604 8.192 2.4902 8 3.03209 8H3.13369H36.8663C37.4759 8 37.984 8.208 38.3904 8.624C38.7968 9.04 39 9.504 39 10.016Z" fill="white"/>
</svg>
