<svg width="40" height="40" viewBox="0 0 40 40" fill="none" xmlns="http://www.w3.org/2000/svg">
<path d="M3.8587 16.6829H5.22826L4.54348 15.0244L3.8587 16.6829ZM13.5435 24.878L14.7174 23.6098L13.6413 22.439H11.0978V23.122H13.25V24H11.0978V24.878H13.5435ZM15.9891 23.6098L17.5543 25.3659V21.9512L15.9891 23.6098ZM20.4891 22.9268C20.4891 22.6016 20.2935 22.439 19.9022 22.439H18.6304V23.5122H19.9022C20.2935 23.5122 20.4891 23.3171 20.4891 22.9268ZM25.087 22.8293C25.087 22.5691 24.8587 22.439 24.4022 22.439H23.1304V23.3171H24.4022C24.8587 23.3171 25.087 23.1545 25.087 22.8293ZM20.6848 15.6098C20.6848 15.2846 20.4565 15.122 20 15.122H18.7283V16.0976H20C20.4565 16.0976 20.6848 15.935 20.6848 15.6098ZM27.9239 16.6829H29.2935L28.6087 14.9268L27.9239 16.6829ZM12.9565 14.2439V18.439H11.8804V15.122L10.413 18.439H9.53261L8.06522 15.122V18.439H6.01087L5.61957 17.561H3.46739L3.07609 18.439H2L3.8587 14.2439H5.32609L6.98913 18.2439V14.2439H8.65217L10.0217 17.0732L11.1957 14.2439H12.9565ZM21.5652 22.9268C21.5652 23.122 21.5326 23.2846 21.4674 23.4146C21.4674 23.6098 21.4185 23.7561 21.3207 23.8537C21.2228 23.9512 21.1087 24.0325 20.9783 24.0976C20.8478 24.1626 20.6848 24.2276 20.4891 24.2927C20.3587 24.2927 20.1957 24.2927 20 24.2927H19.5109H19.0217H18.5326V25.7561H16.5761L15.4022 24.3902L14.0326 25.7561H10.0217V21.561H14.1304L15.4022 22.9268L16.6739 21.561H19.9022C21.0109 21.561 21.5652 22.0163 21.5652 22.9268ZM17.0652 17.561V18.439H13.6413V14.2439H17.0652V15.122H14.7174V15.9024H16.9674V16.7805H14.7174V17.561H17.0652ZM38 26.3415V29.8537V29.9512C38 30.4715 37.8043 30.9268 37.413 31.3171C37.0217 31.7724 36.5326 32 35.9457 32H4.05435C3.46739 32 2.97826 31.8049 2.58696 31.4146C2.19565 30.9593 2 30.4715 2 29.9512V29.8537V19.3171H3.76087L4.15217 18.3415H4.93478L5.32609 19.3171H8.75V18.6341L9.04348 19.3171H10.8043L11.1957 18.5366V19.3171H19.6087V17.7561H19.8043C19.8696 17.7561 19.9022 17.8211 19.9022 17.9512V19.3171H24.3043V19.0244C24.5652 19.1545 24.8587 19.2195 25.1848 19.2195C25.4457 19.2846 25.7065 19.3171 25.9674 19.3171H26.9457H27.7283L28.1196 18.439H29L29.3913 19.3171H32.913V18.439L33.5 19.3171H36.337V13.4634H33.5V14.1463L33.1087 13.4634H30.2717V14.1463L29.8804 13.4634H25.9674C25.9674 13.4634 25.9348 13.4634 25.8696 13.4634C25.2826 13.4634 24.7609 13.561 24.3043 13.7561V13.4634H21.5652V13.7561C21.3043 13.561 20.9783 13.4634 20.587 13.4634C20.5217 13.4634 20.4891 13.4634 20.4891 13.4634H10.6087L9.92391 14.9268L9.33696 13.4634H6.20652V14.1463L5.81522 13.4634H3.17391L2 16.1951V10.1463V10.0488C2 9.52846 2.19565 9.07317 2.58696 8.68293C2.97826 8.22764 3.46739 8 4.05435 8H35.9457C36.5326 8 37.0217 8.19512 37.413 8.58537C37.8043 9.04065 38 9.52846 38 10.0488V10.1463V20.6829H36.1413C36.0761 20.6829 36.0435 20.6829 36.0435 20.6829C35.587 20.6829 35.1957 20.813 34.8696 21.0732V20.6829H32.1304C32.0652 20.6829 32 20.6829 31.9348 20.6829C31.5435 20.6829 31.1848 20.813 30.8587 21.0732V20.6829H25.9674V21.0732C25.5761 20.813 25.1522 20.6829 24.6957 20.6829C24.6304 20.6829 24.5978 20.6829 24.5978 20.6829H21.2717V21.0732C20.9457 20.813 20.5543 20.6829 20.0978 20.6829C20.0326 20.6829 19.9674 20.6829 19.9022 20.6829H16.1848L15.4022 21.561L14.6196 20.6829H9.1413V26.5366H14.5217L15.3043 25.6585L16.1848 26.5366H19.5109V25.1707H19.8043C19.8696 25.1707 19.9348 25.1707 20 25.1707C20.3913 25.1707 20.7826 25.1057 21.1739 24.9756V26.5366H23.913V25.0732H24.1087C24.1087 25.0081 24.1087 24.9756 24.1087 24.9756C24.1739 24.9756 24.2065 25.0081 24.2065 25.0732C24.2717 25.1382 24.3043 25.1707 24.3043 25.1707C24.3043 25.1707 24.2717 25.2033 24.2065 25.2683V26.5366H32.5217C32.587 26.5366 32.6196 26.5366 32.6196 26.5366C33.0761 26.5366 33.5 26.439 33.8913 26.2439V26.5366H36.5326C36.5978 26.5366 36.663 26.5366 36.7283 26.5366C37.1848 26.5366 37.6087 26.4715 38 26.3415ZM26.163 22.6341C26.163 22.8943 26.0978 23.122 25.9674 23.3171C25.837 23.5122 25.6739 23.6748 25.4783 23.8049C25.6739 23.8699 25.837 24 25.9674 24.1951C26.0978 24.3902 26.163 24.6179 26.163 24.878V25.7561H25.087V25.0732C25.087 25.0081 25.087 24.9756 25.087 24.9756C25.087 24.7154 25.0217 24.5203 24.8913 24.3902C24.7609 24.2602 24.5652 24.1951 24.3043 24.1951C24.3043 24.1951 24.2717 24.1951 24.2065 24.1951H23.1304V25.7561H22.1522V21.561H24.5C24.5652 21.561 24.5978 21.561 24.5978 21.561C24.9891 21.561 25.3478 21.626 25.6739 21.7561C26 21.9512 26.163 22.2114 26.163 22.5366C26.163 22.6016 26.163 22.6341 26.163 22.6341ZM21.8587 15.4146C21.8587 15.6748 21.7935 15.9024 21.663 16.0976C21.5326 16.2927 21.3696 16.4228 21.1739 16.4878C21.3696 16.5528 21.5326 16.6829 21.663 16.878C21.7283 17.1382 21.7609 17.3659 21.7609 17.561C21.7609 17.626 21.7609 17.6585 21.7609 17.6585V18.439H20.7826V18.0488V17.6585C20.7826 17.5935 20.7663 17.5122 20.7337 17.4146C20.7011 17.3171 20.6522 17.2358 20.587 17.1707C20.5217 17.1057 20.4565 17.0407 20.3913 16.9756C20.1957 16.9756 20.0326 16.9756 19.9022 16.9756H18.7283V18.439H17.75V14.2439H20.1957C20.1957 14.2439 20.2283 14.2439 20.2935 14.2439C20.6848 14.2439 21.0435 14.3089 21.3696 14.439C21.6957 14.6341 21.8587 14.8943 21.8587 15.2195C21.8587 15.2846 21.8587 15.3496 21.8587 15.4146ZM30.0761 24.878V25.7561H26.75V21.561H30.0761V22.439H27.7283V23.122H30.0761V24H27.7283V24.878H30.0761ZM23.4239 14.2439V18.439H22.4457V14.2439H23.4239ZM34.2826 24.3902C34.2826 25.3008 33.7609 25.7561 32.7174 25.7561H30.7609V24.878H32.7174C33.0435 24.878 33.2065 24.748 33.2065 24.4878C33.2065 24.2927 33.1087 24.1626 32.913 24.0976C32.7174 24.0976 32.5217 24.0976 32.3261 24.0976C32.0652 24.0976 31.8043 24.065 31.5435 24C31.2826 23.935 31.0543 23.8049 30.8587 23.6098C30.663 23.4146 30.5652 23.187 30.5652 22.9268C30.5652 22.8618 30.5652 22.8293 30.5652 22.8293V22.7317C30.5652 22.4065 30.712 22.1301 31.0054 21.9024C31.2989 21.6748 31.6413 21.561 32.0326 21.561H34.087V22.439H32.2283C31.837 22.439 31.6413 22.5691 31.6413 22.8293C31.6413 23.0244 31.7391 23.122 31.9348 23.122C32.1304 23.187 32.2935 23.2195 32.4239 23.2195C32.4891 23.2195 32.538 23.2195 32.5707 23.2195C32.6033 23.2195 32.6522 23.2195 32.7174 23.2195C32.913 23.2195 33.1087 23.2195 33.3043 23.2195C33.5652 23.2846 33.7935 23.4146 33.9891 23.6098C34.1848 23.8049 34.2826 24.0325 34.2826 24.2927C34.2826 24.3577 34.2826 24.3902 34.2826 24.3902ZM38 23.6098V25.1707C37.7391 25.561 37.3478 25.7561 36.8261 25.7561C36.7609 25.7561 36.6957 25.7561 36.6304 25.7561H34.6739V24.878H36.6304C36.9565 24.878 37.1196 24.748 37.1196 24.4878C37.1196 24.2927 37.0543 24.1789 36.9239 24.1463C36.7935 24.1138 36.663 24.0976 36.5326 24.0976C36.5326 24.0976 36.5163 24.0976 36.4837 24.0976C36.4511 24.0976 36.4022 24.0976 36.337 24.0976C36.1413 24.0976 35.9783 24.065 35.8478 24C35.6522 24 35.4402 23.9675 35.212 23.9024C34.9837 23.8374 34.8043 23.7073 34.6739 23.5122C34.5435 23.3171 34.4783 23.122 34.4783 22.9268C34.4783 22.8618 34.4783 22.813 34.4783 22.7805C34.4783 22.748 34.4783 22.7317 34.4783 22.7317C34.4783 22.3415 34.625 22.0488 34.9185 21.8537C35.212 21.6585 35.5543 21.561 35.9457 21.561H38V22.439H36.1413C35.75 22.439 35.5543 22.5691 35.5543 22.8293C35.5543 23.0244 35.7174 23.122 36.0435 23.122L37.1196 23.2195C37.5109 23.2195 37.8043 23.3496 38 23.6098ZM35.4565 14.2439V18.439H33.9891L32.1304 15.3171V18.439H29.9783L29.587 17.561H27.5326L27.1413 18.439H25.9674C24.5978 18.439 23.913 17.7561 23.913 16.3902C23.913 14.9594 24.6304 14.2439 26.0652 14.2439H27.0435V15.122H26.5543H26.163L25.7717 15.2195C25.6413 15.2195 25.5435 15.252 25.4783 15.3171L25.1848 15.5122C25.1196 15.5772 25.087 15.7073 25.087 15.9024C25.0217 16.0325 24.9891 16.1951 24.9891 16.3902C24.9891 16.3902 24.9891 16.4228 24.9891 16.4878C24.9891 16.748 25.0543 17.0081 25.1848 17.2683C25.3804 17.4634 25.6087 17.561 25.8696 17.561C25.9348 17.561 25.9674 17.561 25.9674 17.561H26.4565L27.9239 14.2439H29.3913L31.0543 18.2439V14.2439H32.6196L34.3804 17.1707V14.2439H35.4565Z" fill="white"/>
</svg>
