<svg width="70" height="61" viewBox="0 0 70 61" fill="none" xmlns="http://www.w3.org/2000/svg">
<path d="M58.7558 40.0543C61.4677 40.0543 63.8067 41.0035 65.7728 42.9018C67.7389 44.8001 68.7219 47.1052 68.7219 49.8171C68.7219 52.5289 67.7389 54.834 65.7728 56.7323C63.8067 58.6306 61.4677 59.5798 58.7558 59.5798C56.3152 59.5798 54.1457 58.6984 52.2474 56.9357C50.3491 55.173 49.2643 53.0035 48.9931 50.4272C48.9931 50.4272 48.9931 50.3594 48.9931 50.2238V41.4781H35.9762V42.9018C35.9762 46.0204 35.1965 48.9357 33.6372 51.6476C32.0779 54.3594 29.9762 56.4611 27.3321 57.9527C24.688 59.4442 21.8067 60.1899 18.688 60.1899C13.9423 60.1899 9.87448 58.495 6.48465 55.1052C3.09482 51.7154 1.3999 47.6476 1.3999 42.9018C1.3999 39.6476 2.48465 36.4272 4.65414 33.2408C6.82363 30.0543 9.3999 27.851 12.383 26.6306L4.24736 6.90181C3.97617 6.35943 3.84058 5.85096 3.84058 5.37638C3.84058 4.90181 3.97617 4.39333 4.24736 3.85096C4.51855 2.90181 5.19651 2.22384 6.28126 1.81706C6.68804 1.54588 7.23041 1.41028 7.90838 1.41028C9.5355 1.41028 10.688 2.15605 11.366 3.64757L14.8236 11.173H45.1287C45.2643 11.173 45.3321 11.173 45.3321 11.173C46.8236 11.173 48.044 11.6815 48.9931 12.6984C49.9423 13.7154 50.4169 14.9018 50.4169 16.2577C50.4169 16.3933 50.4169 16.495 50.4169 16.5628C50.4169 16.6306 50.4169 16.6645 50.4169 16.6645C50.4169 17.2069 50.1796 17.4781 49.705 17.4781C49.2304 17.4781 48.9931 17.2069 48.9931 16.6645C48.9931 16.6645 48.9931 16.5967 48.9931 16.4611C48.9931 15.3764 48.6202 14.495 47.8745 13.8171C47.1287 13.1391 46.2813 12.8001 45.3321 12.8001C45.3321 12.8001 45.2643 12.8001 45.1287 12.8001H15.4338L18.2813 18.9018H45.3321C45.7389 18.9018 46.2135 18.9357 46.7558 19.0035C47.2982 19.0713 48.044 19.6476 48.9931 20.7323C49.9423 21.8171 50.4169 23.3764 50.4169 25.4103V44.5289C51.2304 43.3086 52.4507 42.2577 54.0779 41.3764C55.705 40.495 57.2643 40.0543 58.7558 40.0543ZM5.67109 6.29164L13.8067 26.0205C15.2982 25.4781 16.8575 25.2069 18.4846 25.2069C21.3321 25.2069 24.2474 26.0882 27.2304 27.851C30.2135 29.6137 32.383 31.7154 33.7389 34.156V19.9188H17.4677H17.2643H17.0609L13.6033 12.1899L10.1457 4.25774C9.73889 3.30859 8.99312 2.83401 7.90838 2.83401C7.5016 2.83401 7.16261 2.90181 6.89143 3.0374C6.34905 3.30859 5.94228 3.78316 5.67109 4.46113C5.5355 4.73232 5.4677 5.0374 5.4677 5.37638C5.4677 5.71537 5.5355 6.02045 5.67109 6.29164ZM7.5016 54.2916C7.5016 54.2916 8.34058 54.9407 9.8999 56.5C11.9592 57.822 13.8999 58.9696 18.688 58.9696C23.027 58.9696 26.7558 57.4103 29.8745 54.2916C32.9931 51.173 34.5524 47.4442 34.5524 43.1052C34.5524 40.1221 33.8406 37.4103 32.4169 34.9696C30.9931 32.5289 29.0609 30.5967 26.6202 29.173C24.1796 27.7493 21.5355 27.0374 18.688 27.0374C14.3491 27.0374 10.6202 28.5967 7.5016 31.7154C4.38295 34.834 2.82363 38.5967 2.82363 43.0035C2.82363 47.4103 4.38295 51.173 7.5016 54.2916ZM35.7728 40.0543H48.9931V25.4103C48.9931 23.9188 48.688 22.7662 48.0779 21.9527C47.4677 21.1391 46.9253 20.6645 46.4507 20.5289C45.9762 20.3933 45.6033 20.3255 45.3321 20.3255H35.366V37.6137H35.1626L35.366 37.8171C35.5016 38.495 35.6372 39.2408 35.7728 40.0543ZM58.7558 58.156C60.2474 58.156 61.6372 57.7832 62.9253 57.0374C64.2135 56.2916 65.2304 55.2747 65.9762 53.9866C66.7219 52.6984 67.0948 51.3086 67.0948 49.8171C67.0948 47.512 66.2813 45.5459 64.6541 43.9188C63.027 42.2916 61.0609 41.4781 58.7558 41.4781C56.4507 41.4781 54.4846 42.2916 52.8575 43.9188C51.2304 45.5459 50.4169 47.512 50.4169 49.8171C50.4169 52.1221 51.2304 54.0882 52.8575 55.7154C54.4846 57.3425 56.4507 58.156 58.7558 58.156Z" fill="#DDBC7A" stroke="#DDBC7A"/>
</svg>
