<svg width="61" height="51" viewBox="0 0 61 51" fill="none" xmlns="http://www.w3.org/2000/svg">
<path d="M31.5017 3.62712C36.1119 3.62712 40.3831 4.54237 44.3153 6.37288C48.2475 8.20339 51.3322 10.3729 53.5695 12.8814C55.8068 15.3898 57.5017 17.8644 58.6543 20.3051C59.8068 22.7458 60.3831 24.8475 60.3831 26.6102C60.3831 27.1525 60.1797 27.4237 59.7729 27.4237H2.01019C1.60341 27.4237 1.40002 27.1525 1.40002 26.6102C1.40002 24.8475 1.9763 22.7458 3.12884 20.3051C4.28138 17.8644 5.9424 15.3898 8.11189 12.8814C10.2814 10.3729 13.2983 8.20339 17.1627 6.37288C21.0271 4.54237 25.2644 3.62712 29.8746 3.62712V2.20339V2C29.8746 1.59322 30.2136 1.38983 30.8915 1.38983C31.2983 1.38983 31.5017 1.66102 31.5017 2.20339V3.62712ZM2.82375 25.5932H58.756C58.6204 23.9661 57.9424 22.0339 56.7221 19.7966C55.5017 17.5593 53.8068 15.322 51.6373 13.0847C49.4678 10.8475 46.5526 8.94915 42.8915 7.38983C39.2305 5.83051 35.2305 5.05085 30.8915 5.05085C22.6204 5.05085 15.9763 7.38983 10.9593 12.0678C5.9424 16.7458 3.23053 21.2542 2.82375 25.5932ZM54.4848 30.4746C55.4339 31.017 55.9763 31.5593 56.1119 32.1017C56.9254 34 56.4509 35.3559 54.6882 36.1695L31.0949 46.9492H30.6882H9.73901V47.1525C9.73901 47.9661 9.46782 48.6441 8.92545 49.1864C8.38308 49.7288 7.70511 50 6.89155 50C6.07799 50 5.36613 49.7288 4.75596 49.1864C4.14579 48.6441 3.8407 47.9661 3.8407 47.1525V33.1186C3.8407 31.6271 4.58646 30.678 6.07799 30.2712C7.9763 29.7288 9.19663 30.339 9.73901 32.1017C9.8746 31.9661 10.0102 31.8983 10.1458 31.8983H33.3322C34.1458 31.8983 34.8915 32.1017 35.5695 32.5085C36.2475 32.9153 36.756 33.4237 37.0949 34.0339C37.4339 34.6441 37.6034 35.3559 37.6034 36.1695V36.9831L52.2475 30.4746C53.061 30.2034 53.8068 30.2034 54.4848 30.4746ZM8.31528 47.1525V33.1186C8.31528 32.1695 7.8407 31.6949 6.89155 31.6949C5.9424 31.6949 5.46782 32.1695 5.46782 33.1186V47.1525C5.46782 48.1017 5.9424 48.5763 6.89155 48.5763C7.8407 48.5763 8.31528 48.1017 8.31528 47.1525ZM54.8915 33.7288C54.8915 33.322 54.9593 33.0508 55.0949 32.9153C54.5526 31.9661 53.9424 31.6949 53.2644 32.1017L35.9763 39.6271C35.1627 40.0339 34.417 40.2373 33.739 40.2373H25.4C24.9932 40.2373 24.7899 40.0339 24.7899 39.6271C24.7899 38.9492 24.9932 38.6102 25.4 38.6102H33.739H34.1458C34.8238 38.6102 35.3661 38.3051 35.7729 37.6949C36.1797 37.0847 36.3492 36.4746 36.2814 35.8644C36.2136 35.2542 35.8746 34.7119 35.2644 34.2373C34.6543 33.7627 34.0102 33.5932 33.3322 33.7288H10.1458H9.9424V39.4237V39.6271V45.322H30.6882L54.2814 34.5424C54.5526 34.2712 54.756 34 54.8915 33.7288Z" fill="#DDBC7A" stroke="#DDBC7A"/>
</svg>
