<svg width="67" height="48" viewBox="0 0 67 48" fill="none" xmlns="http://www.w3.org/2000/svg">
<path d="M30.7018 27.8663C31.2442 27.8663 31.5154 28.1375 31.5154 28.6798C31.5154 29.2222 31.2442 29.4934 30.7018 29.4934H7.92213C7.37976 29.4934 7.10857 29.2222 7.10857 28.6798C7.10857 28.1375 7.37976 27.8663 7.92213 27.8663H30.7018ZM30.7018 32.1375C31.2442 32.1375 31.5154 32.4426 31.5154 33.0527C31.5154 33.6629 31.2442 33.968 30.7018 33.968H7.92213C7.37976 33.968 7.10857 33.6629 7.10857 33.0527C7.10857 32.4426 7.37976 32.1375 7.92213 32.1375H30.7018ZM60.6001 28.6798C64.1255 30.1714 65.8882 32.7476 65.8882 36.4087C66.0238 39.1205 65.2781 41.4595 63.6509 43.4256C62.0238 45.3917 59.9221 46.4765 57.3459 46.6798C54.7696 46.8832 52.4984 46.1714 50.5323 44.5443C48.5662 42.9171 47.4476 40.8154 47.1764 38.2392H22.3628C22.3628 40.5443 21.5154 42.5443 19.8204 44.2392C18.1255 45.9341 16.1255 46.8493 13.8204 46.9849C11.2442 47.1205 8.97298 46.3409 7.00688 44.646C5.04078 42.951 3.98993 40.8154 3.85433 38.2392H1.61705V34.3748C1.61705 31.6629 2.4645 29.1544 4.15942 26.8493C5.85433 24.5443 7.98993 22.9849 10.5662 22.1714H3.85433C2.90518 22.1714 2.12552 21.8324 1.51535 21.1544C0.905182 20.4765 0.600098 19.7307 0.600098 18.9171V4.47646C0.600098 3.52731 0.905182 2.74765 1.51535 2.13748C2.12552 1.52731 2.90518 1.22222 3.85433 1.22222H21.5492C22.4984 1.22222 23.2781 1.52731 23.8882 2.13748C24.4984 2.74765 24.8035 3.52731 24.8035 4.47646V18.7137C24.8035 19.7985 24.3967 20.6798 23.5831 21.3578H31.7187C32.8035 21.3578 33.7865 21.6968 34.6679 22.3748C35.5492 23.0527 36.1255 23.9341 36.3967 25.0188L38.634 36.4087H47.1764C47.4476 33.29 48.8035 30.9171 51.2442 29.29L46.3628 3.6629V3.25612H42.4984C41.956 3.25612 41.6848 2.98494 41.6848 2.44256C41.6848 2.03578 42.0238 1.83239 42.7018 1.83239H54.9052L56.3289 7.93409H58.5662C59.5154 7.93409 60.1255 8.47646 60.3967 9.56121L61.2103 13.629C61.2103 14.4426 61.0747 14.9849 60.8035 15.2561C60.3967 15.6629 59.9221 15.8663 59.3798 15.8663H57.956L60.6001 28.6798ZM58.5662 9.35781H56.7357L57.7526 14.4426H59.3798L59.5831 14.2392V13.8324L58.973 9.7646C58.973 9.49341 58.8374 9.35781 58.5662 9.35781ZM4.05772 2.44256C2.83739 2.44256 2.22722 2.98494 2.22722 4.06968V7.32392H23.5831V4.06968C23.5831 3.6629 23.3798 3.29002 22.973 2.95103C22.5662 2.61205 22.1594 2.44256 21.7526 2.44256H4.05772ZM2.02383 18.7137C2.29501 19.7985 2.90518 20.3409 3.85433 20.3409H21.5492C21.956 20.3409 22.3628 20.1714 22.7696 19.8324C23.1764 19.4934 23.3798 19.1205 23.3798 18.7137V8.95103H2.02383V18.7137ZM13.4137 45.3578C15.4476 45.2222 17.1764 44.4765 18.6001 43.1205C20.0238 41.7646 20.8713 40.1375 21.1425 38.2392H5.48145C5.75264 40.2731 6.634 41.968 8.12552 43.3239C9.61705 44.6798 11.3798 45.3578 13.4137 45.3578ZM3.44756 36.6121H37.4137L34.973 25.4256C34.4306 23.7985 33.4137 22.9849 31.9221 22.9849H14.634C11.5154 22.9849 8.87128 24.1036 6.70179 26.3409C4.5323 28.5782 3.44756 31.2561 3.44756 34.3748V36.6121ZM47.9899 3.45951L53.0747 28.6798C54.0238 28.1375 55.2442 27.8663 56.7357 27.8663C57.956 27.8663 58.7696 27.9341 59.1764 28.0697L53.8882 3.25612L47.9899 3.45951ZM56.7357 45.3578C58.9052 45.2222 60.7696 44.4087 62.3289 42.9171C63.8882 41.4256 64.6679 39.5951 64.6679 37.4256C64.6679 35.2561 63.9221 33.3917 62.4306 31.8324C60.9391 30.2731 59.1086 29.4934 56.9391 29.4934C54.7696 29.4934 52.9052 30.2731 51.3459 31.8324C49.7865 33.3917 49.0069 35.2561 49.0069 37.4256C49.0069 39.5951 49.7526 41.4595 51.2442 43.0188C52.7357 44.5782 54.5662 45.3578 56.7357 45.3578Z" fill="#DDBC7A" stroke="#DDBC7A"/>
</svg>
