<svg width="65" height="63" viewBox="0 0 65 63" fill="none" xmlns="http://www.w3.org/2000/svg">
<path d="M39.4848 60.3729C39.756 60.3729 39.9255 60.4407 39.9933 60.5763C40.0611 60.7119 40.0272 60.8475 39.8916 60.9831C39.8916 61.5254 39.6882 61.7966 39.2814 61.7966H24.2306C23.6882 61.7966 23.417 61.5932 23.417 61.1864C23.417 60.6441 23.6882 60.3729 24.2306 60.3729H31.1458V24.7797H2.87462C2.46785 24.7797 2.26446 24.5085 2.26446 23.9661C2.26446 22.2034 2.87463 20.1017 4.09496 17.661C5.3153 15.2203 7.04412 12.7119 9.2814 10.1356C11.5187 7.55932 14.6373 5.38983 18.6373 3.62712C22.6373 1.86441 27.078 0.983051 31.9594 0.983051C36.8407 0.983051 41.2814 1.86441 45.2814 3.62712C49.2814 5.38983 52.4001 7.55932 54.6373 10.1356C56.8746 12.7119 58.6034 15.2203 59.8238 17.661C61.0441 20.1017 61.6543 22.2034 61.6543 23.9661C61.6543 24.5085 61.4509 24.7797 61.0441 24.7797H32.7729V60.3729H39.4848ZM31.1458 19.8983V2.81356C29.7899 3.49153 28.4339 4.27119 27.078 5.15255C25.7221 6.0339 24.0611 7.28814 22.095 8.91526C20.1289 10.5424 18.5356 12.6102 17.3153 15.1186C16.095 17.6271 15.417 20.3051 15.2814 23.1525H31.1458V19.8983ZM32.7729 19.8983V23.3559H48.6373C48.2306 14.5424 42.9424 7.76271 32.7729 3.01695V19.8983ZM60.0272 23.1525C59.756 20.9831 58.8068 18.5085 57.1797 15.7288C55.5526 12.9492 52.8068 10.2373 48.9424 7.59322C45.078 4.94915 40.6373 3.35593 35.6204 2.81356C44.8407 7.83051 49.6543 14.6102 50.0611 23.1525H60.0272ZM28.095 2.81356C23.078 3.35593 18.6712 4.94915 14.8746 7.59322C11.078 10.2373 8.36615 12.9153 6.73903 15.6271C5.11191 18.339 4.09496 20.8475 3.68818 23.1525H13.6543C14.0611 14.8814 18.8746 8.1017 28.095 2.81356ZM18.1289 48.1695C18.4 48.1695 18.6712 48.4407 18.9424 48.9831V60.9831V61.1864C18.9424 61.5932 18.6712 61.7966 18.1289 61.7966C17.7221 61.7966 17.5187 61.5254 17.5187 60.9831V49.7966H6.73903V60.9831C6.73903 61.5254 6.46785 61.7966 5.92547 61.7966C5.51869 61.7966 5.3153 61.5254 5.3153 60.9831V48.9831L0.840727 38.4068C0.705134 38 0.908523 37.661 1.4509 37.3898C1.85768 37.1186 2.19666 37.2542 2.46785 37.7966L6.53564 48.1695H18.1289ZM63.6882 37.5932C64.2306 37.5932 64.2984 37.9322 63.8916 38.6102L59.417 49.1864V61.1864C59.8238 61.7288 59.6204 62 58.8068 62C58.4001 62 58.1967 61.7288 58.1967 61.1864V50H47.6204V61.1864V61.3898C47.6204 61.7966 47.3492 62 46.8068 62C46.2645 62 45.9933 61.7288 45.9933 61.1864V48.9831C45.9933 48.5763 46.3322 48.3729 47.0102 48.3729H58.4001L62.4678 38C62.739 37.4576 63.1458 37.322 63.6882 37.5932Z" fill="#DDBC7A" stroke="#DDBC7A"/>
</svg>
