<svg width="42" height="66" viewBox="0 0 42 66" fill="none" xmlns="http://www.w3.org/2000/svg">
<path d="M21.1356 15.3729C24.661 15.3729 26.4237 16.8644 26.4237 19.8475C26.4237 22.8305 24.661 24.322 21.1356 24.322H17.4746V31.4407C17.4746 31.9831 17.1695 32.2542 16.5593 32.2542C15.9492 32.2542 15.6441 31.9831 15.6441 31.4407V16.1864C15.6441 15.6441 15.9831 15.3729 16.661 15.3729H21.1356ZM17.4746 16.7966V22.8983H21.1356C23.5763 22.8983 24.7966 21.8814 24.7966 19.8475C24.7966 17.8136 23.5763 16.7966 21.1356 16.7966H17.4746ZM38.8305 43.8475C40.0508 44.5254 40.9322 45.8136 41.4746 47.7119V62.9661C41.4746 64.322 40.8644 65 39.6441 65H36.7966C35.4407 65 34.7627 64.322 34.7627 62.9661V59.9153H7.71186V62.9661C7.71186 64.322 7.0339 65 5.67797 65H2.83051C1.61017 65 1 64.322 1 62.9661V47.7119C1 45.9492 1.81356 44.661 3.44068 43.8475L6.69491 35.7119C6.83051 34.7627 7.44068 34.2881 8.52542 34.2881H11.5763C6.9661 26.4237 4.66102 20.7288 4.66102 17.2034C4.66102 12.7288 6.25424 8.8644 9.44068 5.61017C12.6271 2.35593 16.5254 0.728813 21.1356 0.728813C25.7458 0.728813 29.6441 2.35593 32.8305 5.61017C36.0169 8.8644 37.6102 12.7288 37.6102 17.2034C37.6102 20.7288 35.3051 26.4237 30.6949 34.2881H33.7458C34.5593 34.2881 35.1695 34.7627 35.5763 35.7119L38.8305 43.8475ZM33.7458 35.9153H29.678C26.9661 40.1186 25.339 42.6271 24.7966 43.4407H37L34.1525 36.322C34.1525 36.0508 34.0169 35.9153 33.7458 35.9153ZM21.1356 2.35593C17.0678 2.35593 13.5424 3.81356 10.5593 6.72881C7.57627 9.64407 6.08475 13.1356 6.08475 17.2034C6.08475 21.9492 10.8305 31.2373 20.322 45.0678L20.5254 45.2712C20.9322 45.678 21.4068 45.6102 21.9492 45.0678C31.4407 31.2373 36.1864 21.9492 36.1864 17.2034C36.1864 14.4915 35.5085 11.983 34.1525 9.67796C32.7966 7.37288 30.9661 5.57627 28.661 4.28813C26.3559 3 23.8475 2.35593 21.1356 2.35593ZM5.27119 43.2373H17.2712C16.7288 42.4237 15.1017 39.9153 12.3898 35.7119H8.52542C8.25424 35.7119 8.11864 35.8475 8.11864 36.1186L5.27119 43.2373ZM2.62712 47.7119V55.6441C2.62712 56.1864 2.76271 56.661 3.0339 57.0678C3.30508 57.4746 3.67797 57.8136 4.15254 58.0847C4.62712 58.3559 5.0678 58.4915 5.47458 58.4915H36.7966C37.2034 58.4915 37.6441 58.3559 38.1186 58.0847C38.5932 57.8136 38.9661 57.4746 39.2373 57.0678C39.5085 56.661 39.6441 56.1864 39.6441 55.6441V47.7119V47.3051C39.6441 46.6271 39.3729 46.0508 38.8305 45.5763C38.2881 45.1017 37.6102 44.8644 36.7966 44.8644H23.983L23.3729 45.8814C23.1017 46.2881 22.7627 46.5593 22.3559 46.6949C21.8136 47.1017 21.2034 47.2373 20.5254 47.1017C19.8475 46.9661 19.3051 46.5593 18.8983 45.8814L18.2881 44.8644H5.47458C4.79661 44.8644 4.15254 45.1356 3.54237 45.678C2.9322 46.2203 2.62712 46.8983 2.62712 47.7119ZM5.88136 62.9661V59.9153H5.67797C4.86441 59.9153 3.91525 59.5763 2.83051 58.8983V62.9661C2.83051 63.2373 2.89831 63.3729 3.0339 63.3729H5.67797C5.81356 63.2373 5.88136 63.1017 5.88136 62.9661ZM39.2373 63.3729C39.3729 63.3729 39.3729 63.3729 39.2373 63.3729C39.5085 63.3729 39.6441 63.2373 39.6441 62.9661V58.8983C38.6949 59.5763 37.7458 59.9153 36.7966 59.9153H36.3898V62.9661C36.3898 63.2373 36.4576 63.3729 36.5932 63.3729H39.2373ZM4.66102 48.9322H4.45763C4.05085 48.9322 3.84746 48.661 3.84746 48.1186C3.84746 47.5763 4.11864 47.3051 4.66102 47.3051H12.1864H12.3898C12.9322 47.3051 13.2034 47.6441 13.2034 48.322C13.2034 48.7288 12.8644 48.9322 12.1864 48.9322H4.66102ZM4.66102 55.2373C4.25424 55.2373 3.98305 55.0339 3.84746 54.6271C3.84746 53.9492 4.11864 53.6102 4.66102 53.6102H37.4068C37.9492 53.6102 38.2203 53.9492 38.2203 54.6271C38.2203 55.0339 37.9492 55.2373 37.4068 55.2373H4.66102ZM29.8814 48.9322L29.0678 48.322C29.0678 47.6441 29.339 47.3051 29.8814 47.3051H37.4068C37.8136 47.3051 38.0169 47.5763 38.0169 48.1186C38.0169 48.661 37.8136 48.9322 37.4068 48.9322H29.8814Z" fill="#DDBC7A"/>
<path d="M39.2373 63.3729C39.3729 63.3729 39.3729 63.3729 39.2373 63.3729ZM39.2373 63.3729C39.5085 63.3729 39.6441 63.2373 39.6441 62.9661V58.8983C38.6949 59.5763 37.7458 59.9153 36.7966 59.9153H36.3898V62.9661C36.3898 63.2373 36.4576 63.3729 36.5932 63.3729H39.2373ZM21.1356 15.3729C24.661 15.3729 26.4237 16.8644 26.4237 19.8475C26.4237 22.8305 24.661 24.322 21.1356 24.322H17.4746V31.4407C17.4746 31.983 17.1695 32.2542 16.5593 32.2542C15.9492 32.2542 15.6441 31.983 15.6441 31.4407V16.1864C15.6441 15.6441 15.9831 15.3729 16.661 15.3729H21.1356ZM17.4746 16.7966V22.8983H21.1356C23.5763 22.8983 24.7966 21.8814 24.7966 19.8475C24.7966 17.8136 23.5763 16.7966 21.1356 16.7966H17.4746ZM38.8305 43.8475C40.0508 44.5254 40.9322 45.8136 41.4746 47.7119V62.9661C41.4746 64.322 40.8644 65 39.6441 65H36.7966C35.4407 65 34.7627 64.322 34.7627 62.9661V59.9153H7.71186V62.9661C7.71186 64.322 7.0339 65 5.67797 65H2.83051C1.61017 65 1 64.322 1 62.9661V47.7119C1 45.9492 1.81356 44.661 3.44068 43.8475L6.69492 35.7119C6.83051 34.7627 7.44068 34.2881 8.52542 34.2881H11.5763C6.9661 26.4237 4.66102 20.7288 4.66102 17.2034C4.66102 12.7288 6.25424 8.8644 9.44068 5.61017C12.6271 2.35593 16.5254 0.728811 21.1356 0.728811C25.7458 0.728811 29.6441 2.35593 32.8305 5.61017C36.0169 8.8644 37.6102 12.7288 37.6102 17.2034C37.6102 20.7288 35.3051 26.4237 30.6949 34.2881H33.7458C34.5593 34.2881 35.1695 34.7627 35.5763 35.7119L38.8305 43.8475ZM33.7458 35.9153H29.678C26.9661 40.1186 25.339 42.6271 24.7966 43.4407H37L34.1525 36.322C34.1525 36.0508 34.0169 35.9153 33.7458 35.9153ZM21.1356 2.35593C17.0678 2.35593 13.5424 3.81356 10.5593 6.72881C7.57627 9.64407 6.08475 13.1356 6.08475 17.2034C6.08475 21.9492 10.8305 31.2373 20.322 45.0678L20.5254 45.2712C20.9322 45.678 21.4068 45.6102 21.9492 45.0678C31.4407 31.2373 36.1864 21.9492 36.1864 17.2034C36.1864 14.4915 35.5085 11.983 34.1525 9.67796C32.7966 7.37288 30.9661 5.57627 28.661 4.28813C26.3559 3 23.8475 2.35593 21.1356 2.35593ZM5.27119 43.2373H17.2712C16.7288 42.4237 15.1017 39.9153 12.3898 35.7119H8.52542C8.25424 35.7119 8.11864 35.8475 8.11864 36.1186L5.27119 43.2373ZM2.62712 47.7119V55.6441C2.62712 56.1864 2.76271 56.661 3.0339 57.0678C3.30508 57.4746 3.67797 57.8136 4.15254 58.0847C4.62712 58.3559 5.0678 58.4915 5.47458 58.4915H36.7966C37.2034 58.4915 37.6441 58.3559 38.1186 58.0847C38.5932 57.8136 38.9661 57.4746 39.2373 57.0678C39.5085 56.661 39.6441 56.1864 39.6441 55.6441V47.7119V47.3051C39.6441 46.6271 39.3729 46.0508 38.8305 45.5763C38.2881 45.1017 37.6102 44.8644 36.7966 44.8644H23.9831L23.3729 45.8814C23.1017 46.2881 22.7627 46.5593 22.3559 46.6949C21.8136 47.1017 21.2034 47.2373 20.5254 47.1017C19.8475 46.9661 19.3051 46.5593 18.8983 45.8814L18.2881 44.8644H5.47458C4.79661 44.8644 4.15254 45.1356 3.54237 45.678C2.9322 46.2203 2.62712 46.8983 2.62712 47.7119ZM5.88136 62.9661V59.9153H5.67797C4.86441 59.9153 3.91525 59.5763 2.83051 58.8983V62.9661C2.83051 63.2373 2.89831 63.3729 3.0339 63.3729H5.67797C5.81356 63.2373 5.88136 63.1017 5.88136 62.9661ZM4.66102 48.9322H4.45763C4.05085 48.9322 3.84746 48.661 3.84746 48.1186C3.84746 47.5763 4.11864 47.3051 4.66102 47.3051H12.1864H12.3898C12.9322 47.3051 13.2034 47.6441 13.2034 48.322C13.2034 48.7288 12.8644 48.9322 12.1864 48.9322H4.66102ZM4.66102 55.2373C4.25424 55.2373 3.98305 55.0339 3.84746 54.6271C3.84746 53.9492 4.11864 53.6102 4.66102 53.6102H37.4068C37.9492 53.6102 38.2203 53.9492 38.2203 54.6271C38.2203 55.0339 37.9492 55.2373 37.4068 55.2373H4.66102ZM29.8814 48.9322L29.0678 48.322C29.0678 47.6441 29.339 47.3051 29.8814 47.3051H37.4068C37.8136 47.3051 38.0169 47.5763 38.0169 48.1186C38.0169 48.661 37.8136 48.9322 37.4068 48.9322H29.8814Z" stroke="#DDBC7A"/>
</svg>
