<svg width="68" height="51" viewBox="0 0 68 51" fill="none" xmlns="http://www.w3.org/2000/svg">
<path d="M65.8882 48.3729C66.0238 48.3729 66.0916 48.3729 66.0916 48.3729C66.634 48.3729 66.9052 48.6441 66.9052 49.1864C66.9052 49.7288 66.634 50 66.0916 50C66.0916 50 66.0238 50 65.8882 50H47.9899C47.4476 50 47.1764 49.7288 47.1764 49.1864C47.1764 48.6441 47.4476 48.3729 47.9899 48.3729H53.6848V8.91526C53.1425 9.59322 52.4645 10.339 51.6509 11.1525C50.8374 11.9661 49.6509 12.9153 48.0916 14C46.5323 15.0847 44.4984 15.9322 41.9899 16.5424C39.4815 17.1525 36.7357 17.4576 33.7526 17.4576C24.6679 17.4576 18.1594 14.678 14.2272 9.11864V48.3729H19.5154C20.0577 48.3729 20.3289 48.6441 20.3289 49.1864C20.3289 49.7288 20.0577 50 19.5154 50H1.61705C1.48145 50 1.41366 50 1.41366 50C0.871284 50 0.600098 49.7288 0.600098 49.1864C0.600098 48.6441 0.871284 48.3729 1.41366 48.3729C1.41366 48.3729 1.48145 48.3729 1.61705 48.3729H7.31196V8.71186C6.4984 7.76271 6.09162 6.67797 6.09162 5.45763C6.09162 4.23729 6.5323 3.15254 7.41366 2.20339C8.29501 1.25424 9.37976 0.779663 10.6679 0.779663C11.956 0.779663 13.0747 1.25424 14.0238 2.20339C14.973 3.15254 15.4476 4.23729 15.4476 5.45763V5.66102C15.4476 6.20339 15.312 6.74577 15.0408 7.28814C15.0408 7.42373 15.1425 7.62712 15.3459 7.89831C15.5492 8.16949 15.8882 8.61017 16.3628 9.22034C16.8374 9.83051 17.3798 10.4068 17.9899 10.9492C18.6001 11.4915 19.4137 12.0678 20.4306 12.678C21.4476 13.2881 22.5662 13.8305 23.7865 14.3051C25.0069 14.7797 26.4984 15.1864 28.2611 15.5254C30.0238 15.8644 31.8543 16.0339 33.7526 16.0339C35.2442 16.0339 36.7018 15.9322 38.1255 15.7288C39.5492 15.5254 40.8035 15.2542 41.8882 14.9153C42.973 14.5763 43.9899 14.2034 44.9391 13.7966C45.8882 13.3898 46.7357 12.9492 47.4815 12.4746C48.2272 12 48.8713 11.5254 49.4137 11.0508C49.956 10.5763 50.4306 10.1356 50.8374 9.72881C51.2442 9.32204 51.5831 8.94915 51.8543 8.61017C52.1255 8.27119 52.3289 8 52.4645 7.79661C52.6001 7.59322 52.6679 7.49153 52.6679 7.49153C52.8035 7.49153 52.8713 7.42373 52.8713 7.28814C52.6001 6.74577 52.4645 6.13559 52.4645 5.45763C52.4645 4.23729 52.9052 3.15254 53.7865 2.20339C54.6679 1.25424 55.7526 0.779663 57.0408 0.779663C58.3289 0.779663 59.4476 1.25424 60.3967 2.20339C61.3459 3.15254 61.8204 4.23729 61.8204 5.45763C61.8204 6.67797 61.4815 7.69492 60.8035 8.50848V48.3729H65.8882ZM12.6001 48.3729V9.72881C12.0577 10 11.3798 10.1356 10.5662 10.1356C9.88823 10.1356 9.27806 10 8.73569 9.72881V48.3729H12.6001ZM10.5662 8.71186H10.7696C11.5831 8.71186 12.295 8.40678 12.9052 7.79661C13.5154 7.18644 13.8204 6.40678 13.8204 5.45763C13.8204 4.64407 13.5154 3.93221 12.9052 3.32204C12.295 2.71186 11.5492 2.40678 10.6679 2.40678C9.78654 2.40678 9.04078 2.71186 8.43061 3.32204C7.82044 3.93221 7.51535 4.64407 7.51535 5.45763C7.51535 5.86441 7.58315 6.27119 7.71874 6.67797C7.85433 7.08475 8.09162 7.42373 8.43061 7.69492C8.76959 7.9661 9.10857 8.20339 9.44755 8.40678C9.78654 8.61017 10.1594 8.71186 10.5662 8.71186ZM59.1764 48.3729V9.72881C58.4984 10 57.8204 10.1356 57.1425 10.1356C56.4645 10.1356 55.7865 10 55.1086 9.72881V48.3729H59.1764ZM57.1425 8.71186C57.956 8.71186 58.6679 8.40678 59.2781 7.79661C59.8882 7.18644 60.1933 6.40678 60.1933 5.45763C60.1933 4.64407 59.8882 3.93221 59.2781 3.32204C58.6679 2.71186 57.956 2.40678 57.1425 2.40678C56.3289 2.40678 55.617 2.71186 55.0069 3.32204C54.3967 3.93221 54.0916 4.64407 54.0916 5.45763C54.0916 6 54.2272 6.54237 54.4984 7.08475C54.7696 7.62712 55.1425 8.0339 55.617 8.30509C56.0916 8.57627 56.6001 8.71186 57.1425 8.71186Z" fill="#DDBC7A" stroke="#DDBC7A"/>
</svg>
