<svg width="59" height="65" viewBox="0 0 59 65" fill="none" xmlns="http://www.w3.org/2000/svg">
<path d="M58.3591 17.017C58.3591 17.1525 58.3591 17.2881 58.3591 17.4237V63.1864C58.3591 63.7288 58.1557 64 57.749 64H1.61336H1.40997C1.27438 64 1.13879 63.9322 1.00319 63.7966C0.867601 63.661 0.799805 63.4576 0.799805 63.1864V17.4237V17.2203V17.017L9.34218 0.949154C9.47777 0.81356 9.54557 0.745766 9.54557 0.745766C9.68116 0.745766 9.78286 0.745766 9.85065 0.745766C9.91845 0.745766 9.95235 0.745766 9.95235 0.745766H49.2066C49.3422 0.745766 49.41 0.745766 49.41 0.745766C49.5456 0.745766 49.6134 0.81356 49.6134 0.949154L58.3591 17.017ZM2.02014 17.6271V61.3559L9.13879 54.2373V4.40678L2.02014 17.6271ZM3.03709 62.3729H16.6642L9.95235 55.661L3.03709 62.3729ZM17.8846 61.3559V17.4237L10.5625 4.20339V54.2373L17.8846 61.3559ZM56.9354 62.3729V17.6271L48.5964 2.16949H11.1727L19.3083 17.017C19.4439 17.1525 19.5117 17.2542 19.5117 17.322C19.5117 17.3898 19.4439 17.4237 19.3083 17.4237V62.3729H56.9354ZM39.8507 4.61017C40.393 4.61017 40.9015 4.77966 41.3761 5.11864C41.8507 5.45763 42.2235 5.89831 42.4947 6.44068C42.7659 6.98305 42.9015 7.52542 42.9015 8.0678C42.9015 8.88136 42.5964 9.66102 41.9862 10.4068C41.3761 11.1525 40.6642 11.5254 39.8507 11.5254H25.6134C25.071 11.5254 24.5625 11.3559 24.0879 11.017C23.6134 10.678 23.2405 10.2373 22.9693 9.69492C22.6981 9.15255 22.5625 8.61017 22.5625 8.0678C22.5625 7.52542 22.6981 6.98305 22.9693 6.44068C23.2405 5.89831 23.6134 5.45763 24.0879 5.11864C24.5625 4.77966 25.071 4.61017 25.6134 4.61017H39.8507ZM39.8507 9.89831C39.8507 10.0339 39.9184 10.1017 40.054 10.1017C41.2744 10.1017 41.8845 9.42373 41.8845 8.0678C41.8845 6.71187 41.2744 6.0339 40.054 6.0339C39.9184 6.0339 39.8507 6.0339 39.8507 6.0339H25.6134C25.6134 6.0339 25.5456 6.0339 25.41 6.0339C24.1896 6.0339 23.5795 6.71187 23.5795 8.0678C23.5795 9.42373 24.1896 10.1017 25.41 10.1017C25.5456 10.1017 25.6134 10.0339 25.6134 9.89831H39.8507Z" fill="#DDBC7A" stroke="#DDBC7A"/>
</svg>
